<?xml version="1.0" encoding="UTF-8"?>
<svg version="1.1" xmlns="http://www.w3.org/2000/svg" width="347" height="374">
<path d="M0 0 C1.28682219 -0.00785502 1.28682219 -0.00785502 2.59964079 -0.01586872 C5.45575238 -0.03079282 8.31168361 -0.0315722 11.16783142 -0.03224182 C13.22346801 -0.03986856 15.27910176 -0.04829694 17.33473206 -0.0574646 C22.90740736 -0.07936926 28.4800278 -0.08820342 34.05274129 -0.09329104 C37.5397902 -0.09694025 41.02682487 -0.10318333 44.51386833 -0.11029243 C56.6949158 -0.13477568 68.87592077 -0.14783581 81.05699158 -0.15138245 C92.38477668 -0.15501388 103.71229022 -0.18488426 115.03999239 -0.22678703 C124.78553978 -0.26156439 134.53099752 -0.2769322 144.2766065 -0.27762848 C150.08810348 -0.27841893 155.89932381 -0.28705061 161.7107563 -0.31562614 C167.1831778 -0.34193347 172.65509579 -0.34394148 178.12755203 -0.3279705 C180.12567817 -0.3261659 182.12383411 -0.33275635 184.12189674 -0.34878922 C199.76366167 -0.46655601 214.33571507 0.73569967 226.12852478 12.27415466 C237.66495886 23.7485649 241.40197639 35.79577822 241.52983403 51.85601246 C241.53531259 54.62105346 241.52617377 57.38583642 241.51670837 60.15086365 C241.52077905 62.15269761 241.52612371 64.15452932 241.53263855 66.15635681 C241.54625977 71.56755214 241.54103474 76.97857496 241.53150129 82.38977313 C241.52387667 88.06828428 241.53095817 93.7467812 241.53565979 99.42529297 C241.54110964 108.96030819 241.53394642 118.49525358 241.51963806 128.03025818 C241.50331776 139.03261905 241.50859872 150.03481306 241.52511728 161.03716987 C241.53875971 170.50503124 241.5406382 179.97284257 241.53280127 189.4407106 C241.5281393 195.08598409 241.52745906 200.73117931 241.53741074 206.37644768 C241.54611813 211.68630859 241.53998983 216.99595578 241.52272797 222.30579376 C241.51878301 224.24711567 241.51986275 226.18845576 241.52651596 228.12977028 C241.58079014 245.58417036 239.77097038 259.85972067 227.42539978 273.13352966 C215.71974497 284.04288143 202.18311099 286.44888702 186.76199341 286.40113831 C185.97056122 286.4026983 185.17912902 286.40425829 184.36371404 286.40586555 C181.73866724 286.4098217 179.11367933 286.40670692 176.4886322 286.40354919 C174.59546882 286.40490566 172.70230569 286.40668697 170.80914307 286.40885925 C165.68506016 286.41340533 160.56099745 286.41165541 155.43691421 286.40848017 C150.06135617 286.40594085 144.68579981 286.40829859 139.3102417 286.40986633 C130.28116039 286.41168391 121.25208727 286.409293 112.2230072 286.40452576 C101.8058167 286.39908888 91.38864578 286.40084328 80.97145575 286.40635216 C72.00895114 286.41090093 63.0464524 286.41152507 54.083947 286.40891349 C48.73936379 286.40735978 43.39478975 286.40713194 38.05020714 286.41044998 C33.0211477 286.41335417 27.99211332 286.41130645 22.96305656 286.40555573 C21.12493684 286.40424153 19.28681499 286.40459927 17.44869614 286.40681839 C-19.05794277 286.44680352 -19.05794277 286.44680352 -33.87147522 273.27415466 C-43.69388488 263.31765067 -48.02190324 251.71677672 -48.01864624 237.90184021 C-48.02232293 237.0614451 -48.02599962 236.22105 -48.02978772 235.35518837 C-48.0407966 232.54041049 -48.04466369 229.72566957 -48.04847717 226.91087341 C-48.05474404 224.89184452 -48.06139104 222.87281677 -48.06838989 220.85379028 C-48.08940999 214.22308655 -48.0997919 207.59238264 -48.10975647 200.96165466 C-48.1138051 198.67586759 -48.11792206 196.39008065 -48.12210655 194.10429382 C-48.14115547 183.36202848 -48.15538588 172.61976998 -48.16371852 161.877491 C-48.17348343 149.49437938 -48.19978484 137.11144686 -48.24021941 124.72839832 C-48.2704278 115.14685576 -48.28519197 105.56536439 -48.28849953 95.98377514 C-48.29084504 90.26622758 -48.29974027 84.54887142 -48.32496071 78.83137512 C-48.34832837 73.44688603 -48.35243972 68.06271318 -48.34219933 62.67818642 C-48.34170593 60.70986183 -48.34796792 58.74152122 -48.36175537 56.77324486 C-48.4714323 40.17745439 -46.61789812 26.19941057 -35.06288147 13.24681091 C-25.40790429 4.07357896 -13.08608605 -0.04013433 0 0 Z " fill="#111A5E" transform="translate(75.87147521972656,36.72584533691406)"/>
<path d="M0 0 C1.5985231 -0.002062 1.5985231 -0.002062 3.2293396 -0.00416565 C4.39315155 -0.00057037 5.5569635 0.0030249 6.75604248 0.00672913 C7.98557648 0.0065831 9.21511047 0.00643707 10.48190308 0.00628662 C13.84935148 0.00686374 17.21673852 0.01187762 20.58417606 0.01886058 C24.10490297 0.0251136 27.6256307 0.02569946 31.1463623 0.02688599 C37.81152202 0.02999355 44.47666532 0.0381992 51.14181781 0.04823548 C58.73063936 0.05941445 66.3194617 0.06491156 73.90828943 0.06993091 C89.51738068 0.08038228 105.12645556 0.09797061 120.73553467 0.12025452 C118.51949683 2.33629235 116.70577773 3.16459286 113.85272217 4.44056702 C112.85901611 4.8890802 111.86531006 5.33759338 110.8414917 5.79969788 C109.77527588 6.27673157 108.70906006 6.75376526 107.61053467 7.24525452 C100.63240175 10.40188235 93.67805892 13.56621481 86.86053467 17.05775452 C79.90834561 20.60919388 72.83245188 23.8691387 65.73553467 27.12025452 C55.96823328 31.60350305 46.25869055 36.13745282 36.73553467 41.12025452 C36.13354248 41.42850159 35.53155029 41.73674866 34.91131592 42.05433655 C25.53932873 46.88770414 18.11211299 52.67751854 10.73553467 60.12025452 C10.06908936 60.7531842 9.40264404 61.38611389 8.71600342 62.03822327 C-1.09478157 72.07047067 -7.5784644 88.21864736 -8.26446533 102.12025452 C-8.32891846 103.30748108 -8.39337158 104.49470764 -8.45977783 105.71791077 C-8.82030788 115.5163433 -7.41237265 123.76972718 -4.26446533 133.12025452 C-3.91384033 134.17084045 -3.56321533 135.22142639 -3.20196533 136.30384827 C-0.21801716 144.27140432 4.30445479 150.61812398 9.73553467 157.12025452 C10.27822998 157.77767639 10.82092529 158.43509827 11.38006592 159.11244202 C20.19079148 168.79308732 34.59363942 177.18154771 47.73553467 178.12025452 C53.84457262 178.3416694 59.69094497 178.01574929 65.73553467 177.12025452 C65.73553467 176.46025452 65.73553467 175.80025452 65.73553467 175.12025452 C66.29498779 174.92431702 66.85444092 174.72837952 67.43084717 174.52650452 C74.1953881 172.003396 80.24296166 168.67569695 86.43865967 165.02259827 C94.93471331 160.12025452 94.93471331 160.12025452 99.73553467 160.12025452 C99.73553467 159.46025452 99.73553467 158.80025452 99.73553467 158.12025452 C105.12140523 154.94597332 110.48392667 152.30884305 116.33319092 150.10072327 C118.59901744 149.17597131 120.61605798 148.08564859 122.73553467 146.87025452 C128.16584023 144.0724906 133.86636116 144.38769958 139.67303467 145.87025452 C142.04003069 147.30479756 143.14712764 148.88204461 144.73553467 151.12025452 C145.72553467 151.45025452 146.71553467 151.78025452 147.73553467 152.12025452 C150.2297842 156.28307098 152.30720415 161.26584196 152.73553467 166.12025452 C152.40553467 167.11025452 152.07553467 168.10025452 151.73553467 169.12025452 C151.07553467 169.12025452 150.41553467 169.12025452 149.73553467 169.12025452 C149.66076904 169.70033264 149.58600342 170.28041077 149.50897217 170.87806702 C146.38381169 179.93787569 128.84469206 188.73630106 121.24383545 194.28529358 C118.00202352 196.65685855 114.77215026 199.04437523 111.54217529 201.43202209 C103.89876288 207.08030223 96.21821132 212.67371141 88.50482178 218.22596741 C83.05446383 222.15424437 77.6387841 226.12748303 72.23553467 230.12025452 C60.2653797 238.96269614 48.20020969 247.67231181 36.07562256 256.301651 C32.75433457 258.66811064 29.44723286 261.05295274 26.14959717 263.45228577 C25.35553467 264.02914124 24.56147217 264.6059967 23.74334717 265.20033264 C22.20265557 266.3204912 20.66348508 267.44274622 19.12615967 268.56752014 C9.48644585 275.57110284 1.21066315 281.5803384 -11.26446533 280.12025452 C-14.26446533 278.12025452 -14.26446533 278.12025452 -16.07696533 275.99525452 C-18.14632373 273.78490089 -18.14632373 273.78490089 -21.11602783 274.27259827 C-24.26446533 274.12025452 -24.26446533 274.12025452 -26.64337158 272.31947327 C-35.88337907 261.69098522 -40.58833634 250.4794999 -40.53189087 236.38717651 C-40.53642198 235.54421813 -40.54095309 234.70125975 -40.54562151 233.83275717 C-40.55821305 231.027247 -40.55664854 228.22193227 -40.55499268 225.41639709 C-40.56098127 223.39692436 -40.56778758 221.37745391 -40.5753479 219.35798645 C-40.59298301 213.88460908 -40.59770228 208.41129428 -40.59897947 202.93789124 C-40.60040322 199.51384157 -40.60467711 196.08980769 -40.60997391 192.66576195 C-40.62846711 180.70746734 -40.63664555 168.74921725 -40.6350708 156.79090881 C-40.63387013 145.66534222 -40.65495981 134.53996985 -40.68655813 123.41445237 C-40.71276134 113.84558035 -40.72343637 104.27677159 -40.72215998 94.70786399 C-40.72165147 89.00043288 -40.72727317 83.29317439 -40.74851608 77.58577919 C-40.76796619 72.2135469 -40.76797667 66.84165069 -40.75348282 61.46940613 C-40.7514019 59.50592237 -40.75605246 57.54241721 -40.76820374 55.57896996 C-40.86408528 39.00265601 -38.99582389 25.02862404 -27.45587158 12.09291077 C-20.0648039 5.07062817 -10.27117957 -0.01023026 0 0 Z " fill="#10195E" transform="translate(68.26446533203125,37.87974548339844)"/>
<path d="M0 0 C12.35135397 1.1299841 22.53859886 9.44984291 31 18 C31.69609375 18.66257813 32.3921875 19.32515625 33.109375 20.0078125 C41.72562952 28.79104869 47.21211241 41.11115706 50 53 C50.25583862 53.90770142 50.25583862 53.90770142 50.5168457 54.83374023 C55.07610118 75.27551579 48.72249093 95.8660045 38.0859375 113.1015625 C29.50747218 125.63388838 18.27258221 133.2183328 5 140 C4.02482422 140.49935059 3.04964844 140.99870117 2.04492188 141.51318359 C-11.10307781 148.2141491 -24.35901571 154.68049678 -37.72460938 160.93505859 C-50.23593956 166.7906833 -62.67306208 172.76495527 -75 179 C-75.66 179.33 -76.32 179.66 -77 180 C-21.065 180.495 -21.065 180.495 36 181 C36 181.33 36 181.66 36 182 C10.91279202 182.02338803 -14.17441432 182.04100816 -39.26163101 182.05181217 C-50.91075251 182.05696259 -62.55986723 182.06398136 -74.20898438 182.07543945 C-84.36550455 182.08542464 -94.52201981 182.09186255 -104.67854476 182.09408849 C-110.05344613 182.09538909 -115.42833344 182.09843365 -120.80323029 182.10573006 C-125.86910132 182.11255082 -130.9349526 182.1146047 -136.00082779 182.11310768 C-137.85345441 182.1133813 -139.70608174 182.11535032 -141.55870438 182.11920547 C-176.54750814 182.18840243 -176.54750814 182.18840243 -189 172 C-187.02 171.01 -187.02 171.01 -185 170 C-184.01 170.66 -183.02 171.32 -182 172 C-182 172.66 -182 173.32 -182 174 C-177.378958 176.64361671 -173.20842347 176.60867671 -168 176 C-156.15599035 172.58974205 -145.96367431 163.56583413 -136.30078125 156.23828125 C-131.95399901 152.94960386 -127.54872379 149.74664052 -123.125 146.5625 C-122.37460449 146.02214111 -121.62420898 145.48178223 -120.85107422 144.92504883 C-118.56805151 143.28243375 -116.28404981 141.64118648 -114 140 C-111.01952477 137.85597863 -108.04038399 135.71011894 -105.0625 133.5625 C-104.32563965 133.03108398 -103.5887793 132.49966797 -102.82958984 131.95214844 C-96.46237822 127.3513781 -90.14167003 122.68884958 -83.82446289 118.01977539 C-79.24430166 114.63923634 -74.64273374 111.29400662 -70 108 C-57.17127993 98.89415398 -44.54343508 89.49420224 -32 80 C-31.47212891 79.60361328 -30.94425781 79.20722656 -30.40039062 78.79882812 C-12.8514149 65.61137978 -0.05941416 53.07950941 7 32 C7.26554688 31.22914063 7.53109375 30.45828125 7.8046875 29.6640625 C10.43504527 20.83614944 9.72737136 13.16068136 5.484375 5.09375 C3.89428016 2.85087938 2.27643679 1.51762453 0 0 Z " fill="#9D7BE7" transform="translate(235,141)"/>
<path d="M0 0 C27.3382571 -0.07011618 54.6765007 -0.12300102 82.01482964 -0.15543652 C94.70881025 -0.17089793 107.40273496 -0.19197367 120.09667969 -0.22631836 C131.16217401 -0.25624282 142.22762784 -0.27558028 153.29316151 -0.28226548 C159.15094525 -0.28617255 165.00861314 -0.29533979 170.86635971 -0.31719017 C176.38368902 -0.33760334 181.90085513 -0.34382399 187.41821861 -0.33932304 C189.43939921 -0.34014608 191.46058546 -0.3460828 193.48173332 -0.35761642 C213.11421414 -0.46412153 213.11421414 -0.46412153 221 3 C221 3.33 221 3.66 221 4 C220.20078125 4.07476562 219.4015625 4.14953125 218.578125 4.2265625 C206.2765605 5.69928501 197.6607215 10.61916926 188 18 C178.26902457 25.24760018 168.48030031 32.41314888 158.58984375 39.44140625 C154.37645946 42.4377227 150.18896402 45.4696856 146 48.5 C137.80050171 54.42890783 129.57258815 60.31683854 121.33203125 66.18847656 C113.42446833 71.82422799 105.54141 77.49276761 97.67285156 83.18286133 C93.67992396 86.06895211 89.68288576 88.94880277 85.67089844 91.80834961 C84.55838332 92.6017725 83.44704968 93.39685469 82.33691406 94.19360352 C79.07353669 96.53404817 75.78920837 98.8394823 72.484375 101.12109375 C55.05610544 113.25873513 40.83874122 128.31952631 35.35546875 149.48828125 C34.0709123 158.56487242 34.15486373 166.12665357 39 174 C39 174.66 39 175.32 39 176 C40.32 176.66 41.64 177.32 43 178 C31.98429142 176.58229786 23.12856707 170.2206643 15 163 C14.06220703 162.18595703 14.06220703 162.18595703 13.10546875 161.35546875 C3.1964339 152.16221069 -1.93194797 140.59222683 -6 128 C-6.268125 127.18917969 -6.53625 126.37835938 -6.8125 125.54296875 C-11.50844319 108.48756396 -7.46613677 89.68811028 1.015625 74.71826172 C1.34046875 74.15123535 1.6653125 73.58420898 2 73 C2.474375 72.14535156 2.94875 71.29070312 3.4375 70.41015625 C13.80742287 53.34299152 31.19210899 43.89095532 48.81640625 35.9140625 C52.74865114 34.13413785 56.5940796 32.21274672 60.4375 30.25 C68.65287173 26.08141286 77.0308822 22.27546412 85.40576172 18.44042969 C92.86372411 15.01506529 100.23319377 11.46418857 107.53515625 7.71875 C111.63035296 5.68731082 115.82263354 3.85660731 120 2 C80.4 1.67 40.8 1.34 0 1 C0 0.67 0 0.34 0 0 Z " fill="#0DE3C7" transform="translate(67,37)"/>
<path d="M0 0 C27.3382571 -0.07011618 54.6765007 -0.12300102 82.01482964 -0.15543652 C94.70881025 -0.17089793 107.40273496 -0.19197367 120.09667969 -0.22631836 C131.16217401 -0.25624282 142.22762784 -0.27558028 153.29316151 -0.28226548 C159.15094525 -0.28617255 165.00861314 -0.29533979 170.86635971 -0.31719017 C176.38368902 -0.33760334 181.90085513 -0.34382399 187.41821861 -0.33932304 C189.43939921 -0.34014608 191.46058546 -0.3460828 193.48173332 -0.35761642 C213.11421414 -0.46412153 213.11421414 -0.46412153 221 3 C221 3.33 221 3.66 221 4 C215.72 4.66 210.44 5.32 205 6 C205 5.01 205 4.02 205 3 C182.1425672 2.84222719 182.1425672 2.84222719 159.86328125 7.16015625 C157.07447771 7.97815456 154.88527386 8.16594339 152 8 C152 8.66 152 9.32 152 10 C150.99582031 10.30292969 149.99164063 10.60585938 148.95703125 10.91796875 C141.25426864 13.26735398 133.67930889 15.76965198 126.1875 18.73828125 C121.67826854 20.52318537 117.12842494 22.19900066 112.58203125 23.88671875 C109.89849349 24.85526826 109.89849349 24.85526826 108 27 C105.85665341 27.93066365 103.68550715 28.79818203 101.5 29.625 C100.3346875 30.07101563 99.169375 30.51703125 97.96875 30.9765625 C95 32 95 32 93 32 C93 32.66 93 33.32 93 34 C91.56705502 34.84114171 90.12845595 35.67265687 88.6875 36.5 C87.88699219 36.9640625 87.08648437 37.428125 86.26171875 37.90625 C84 39 84 39 81 39 C80.67 39.99 80.34 40.98 80 42 C79.01 42 78.02 42 77 42 C77 42.66 77 43.32 77 44 C75.1640625 45.48046875 75.1640625 45.48046875 72.625 47.1875 C71.71105469 47.81269531 70.79710937 48.43789062 69.85546875 49.08203125 C68.0501637 50.29462328 66.24076598 51.50116358 64.42578125 52.69921875 C58.9524618 56.38533185 54.35807047 60.39060433 49.8125 65.1796875 C48 67 48 67 46 68 C45.505 69.485 45.505 69.485 45 71 C44.34 71 43.68 71 43 71 C42.76023438 71.52335937 42.52046875 72.04671875 42.2734375 72.5859375 C40.94225544 75.10946669 39.41230653 77.45007519 37.82714844 79.82006836 C33.70753817 86.00534023 30.36666096 91.92059678 28 99 C27.36964844 100.7634375 27.36964844 100.7634375 26.7265625 102.5625 C20.38878141 120.52297967 20.33426121 137.23069327 22 156 C22.66 156 23.32 156 24 156 C25.09006088 158.64729071 26.08301129 161.26563614 26.9375 164 C27.98537729 166.95871236 29.29949774 169.37195105 31 172 C31.66 171.67 32.32 171.34 33 171 C32.7525 169.88625 32.7525 169.88625 32.5 168.75 C30.73684211 155.52631579 30.73684211 155.52631579 33 151 C33.2724167 148.44014782 33.44564981 145.88070064 33.62109375 143.3125 C34 141 34 141 36 139 C36.144375 138.360625 36.28875 137.72125 36.4375 137.0625 C37.12058351 134.55786048 38.14649299 133.78221828 40 132 C41.04644066 130.36209288 42.0398183 128.68991979 43 127 C43.53367187 126.06994141 43.53367187 126.06994141 44.078125 125.12109375 C45.05617085 123.41640116 46.02852942 121.70844826 47 120 C47.66 120 48.32 120 49 120 C49.226875 119.2575 49.45375 118.515 49.6875 117.75 C51.26875885 114.43688621 53.06839761 113.16380177 56 111 C57.89708748 109.15870921 59.72328218 107.32484265 61.4375 105.3125 C63.50626244 103.57473955 65.36159497 103.35654122 68 103 C68.0928125 102.13375 68.0928125 102.13375 68.1875 101.25 C69.34200848 98.05289959 71.21547979 96.8563468 74 95 C74.99 95 75.98 95 77 95 C77 94.34 77 93.68 77 93 C78.98 92.67 80.96 92.34 83 92 C83 91.34 83 90.68 83 90 C83.99 90 84.98 90 86 90 C86 89.34 86 88.68 86 88 C86.66 88 87.32 88 88 88 C88 87.34 88 86.68 88 86 C88.99 86 89.98 86 91 86 C91 85.34 91 84.68 91 84 C92.98 84.495 92.98 84.495 95 85 C93.17136967 86.32067746 91.34266917 87.64125651 89.51367188 88.96142578 C87.90182975 90.12615635 86.29117882 91.29253691 84.68164062 92.46044922 C80.52978199 95.46966095 76.36474008 98.45271051 72.1484375 101.37109375 C54.84913158 113.41924241 40.79387076 128.4927535 35.35546875 149.48828125 C34.0709123 158.56487242 34.15486373 166.12665357 39 174 C39 174.66 39 175.32 39 176 C40.32 176.66 41.64 177.32 43 178 C31.98429142 176.58229786 23.12856707 170.2206643 15 163 C14.06220703 162.18595703 14.06220703 162.18595703 13.10546875 161.35546875 C3.1964339 152.16221069 -1.93194797 140.59222683 -6 128 C-6.268125 127.18917969 -6.53625 126.37835938 -6.8125 125.54296875 C-11.50844319 108.48756396 -7.46613677 89.68811028 1.015625 74.71826172 C1.34046875 74.15123535 1.6653125 73.58420898 2 73 C2.474375 72.14535156 2.94875 71.29070312 3.4375 70.41015625 C13.80742287 53.34299152 31.19210899 43.89095532 48.81640625 35.9140625 C52.74865114 34.13413785 56.5940796 32.21274672 60.4375 30.25 C68.65287173 26.08141286 77.0308822 22.27546412 85.40576172 18.44042969 C92.86372411 15.01506529 100.23319377 11.46418857 107.53515625 7.71875 C111.63035296 5.68731082 115.82263354 3.85660731 120 2 C80.4 1.67 40.8 1.34 0 1 C0 0.67 0 0.34 0 0 Z " fill="#10CDB9" transform="translate(67,37)"/>
<path d="M0 0 C0 0.66 0 1.32 0 2 C1.15048828 2.35771484 1.15048828 2.35771484 2.32421875 2.72265625 C6.32992911 4.63487127 7.27443011 7.24008098 9.04296875 11.17578125 C12.953334 22.7153489 7.63443572 35.68123839 2.75 46.25 C-2.03249126 55.16829345 -8.54058288 63.18818501 -16 70 C-16.33 69.01 -16.66 68.02 -17 67 C-16.34 67 -15.68 67 -15 67 C-15.51930192 61.28767891 -16.1265206 55.07019338 -19 50 C-21.01299319 49.34039396 -21.01299319 49.34039396 -23 49 C-23.309375 48.34 -23.61875 47.68 -23.9375 47 C-24.8136005 44.81814273 -24.8136005 44.81814273 -27 44.25 C-27.99 44.1675 -28.98 44.085 -30 44 C-30.67933594 43.90203125 -31.35867187 43.8040625 -32.05859375 43.703125 C-39.27113058 43.08727621 -44.43762936 45.85132937 -50.58203125 49.1796875 C-55.85650907 51.98872369 -61.3382175 54.11273917 -67 56 C-67 56.66 -67 57.32 -67 58 C-67.55945313 58.1959375 -68.11890625 58.391875 -68.6953125 58.59375 C-75.45985343 61.11685851 -81.50742699 64.44455757 -87.703125 68.09765625 C-96.19917864 73 -96.19917864 73 -101 73 C-101 73.66 -101 74.32 -101 75 C-107.17285759 76.82899484 -112.58201956 77.28360961 -119 77 C-120.2375 77 -121.475 77 -122.75 77 C-127.56698158 75.51785182 -129.55531849 72.26873179 -132 68 C-135.8600549 60.04275372 -134.74811868 50.58875138 -132.375 42.3125 C-127.53836916 28.4239802 -118.80742003 15.95420265 -108 6 C-107.34 6.33 -106.68 6.66 -106 7 C-106.33 7.99 -106.66 8.98 -107 10 C-107.5501805 16.14720908 -107.24188374 20.59686043 -104 26 C-104 26.66 -104 27.32 -104 28 C-96.63809156 31.81728586 -89.70282925 33.80604421 -81.49609375 31.20703125 C-79.2713687 30.22453846 -77.13697169 29.15995156 -75 28 C-69.10714286 25 -69.10714286 25 -67 25 C-67 24.34 -67 23.68 -67 23 C-65.10208305 22.05104152 -63.20395432 21.10250393 -61.3046875 20.15625 C-59.78485029 19.3937554 -58.269085 18.62308216 -56.7578125 17.84375 C-56.05398437 17.4828125 -55.35015625 17.121875 -54.625 16.75 C-53.97789062 16.41484375 -53.33078125 16.0796875 -52.6640625 15.734375 C-51 15 -51 15 -49 15 C-49 14.34 -49 13.68 -49 13 C-48.19175781 12.68546875 -47.38351563 12.3709375 -46.55078125 12.046875 C-45.48214844 11.61890625 -44.41351563 11.1909375 -43.3125 10.75 C-41.72888672 10.12351563 -41.72888672 10.12351563 -40.11328125 9.484375 C-36.96417717 7.98292011 -34.67968394 6.21041032 -32 4 C-22.29281562 -1.69769518 -10.82693815 -0.39200723 0 0 Z " fill="#232C8D" transform="translate(235,140)"/>
<path d="M0 0 C27.3382571 -0.07011618 54.6765007 -0.12300102 82.01482964 -0.15543652 C94.70881025 -0.17089793 107.40273496 -0.19197367 120.09667969 -0.22631836 C131.16217401 -0.25624282 142.22762784 -0.27558028 153.29316151 -0.28226548 C159.15094525 -0.28617255 165.00861314 -0.29533979 170.86635971 -0.31719017 C176.38368902 -0.33760334 181.90085513 -0.34382399 187.41821861 -0.33932304 C189.43939921 -0.34014608 191.46058546 -0.3460828 193.48173332 -0.35761642 C213.11421414 -0.46412153 213.11421414 -0.46412153 221 3 C221 3.33 221 3.66 221 4 C215.72 4.66 210.44 5.32 205 6 C205 5.01 205 4.02 205 3 C196.94897019 3.10861342 188.89801424 3.22144504 180.84711552 3.33933926 C177.1068416 3.3939847 173.36655958 3.44729583 169.6262207 3.49731445 C140.95875726 2.1916268 140.95875726 2.1916268 114 9 C108 12 108 12 106 12 C106 12.66 106 13.32 106 14 C102.04 14.66 98.08 15.32 94 16 C93.505 17.485 93.505 17.485 93 19 C90.69 19 88.38 19 86 19 C88.91022853 16.67758085 91.81488043 15.0006201 95.17578125 13.40625 C96.16900391 12.93316406 97.16222656 12.46007813 98.18554688 11.97265625 C99.21744141 11.48667969 100.24933594 11.00070313 101.3125 10.5 C102.84293945 9.77103516 102.84293945 9.77103516 104.40429688 9.02734375 C109.56912879 6.57680294 114.74105219 4.25383478 120 2 C80.4 1.67 40.8 1.34 0 1 C0 0.67 0 0.34 0 0 Z " fill="#84D6D9" transform="translate(67,37)"/>
<path d="M0 0 C2 2 2 2 2 4 C-6.91 8.29 -15.82 12.58 -25 17 C30.935 17.495 30.935 17.495 88 18 C88 18.33 88 18.66 88 19 C62.91279202 19.02338803 37.82558568 19.04100816 12.73836899 19.05181217 C1.08924749 19.05696259 -10.55986723 19.06398136 -22.20898438 19.07543945 C-32.36550455 19.08542464 -42.52201981 19.09186255 -52.67854476 19.09408849 C-58.05344613 19.09538909 -63.42833344 19.09843365 -68.80323029 19.10573006 C-73.86910132 19.11255082 -78.9349526 19.1146047 -84.00082779 19.11310768 C-85.85345441 19.1133813 -87.70608174 19.11535032 -89.55870438 19.11920547 C-115.69868683 19.17090222 -115.69868683 19.17090222 -125 16 C-125 15.67 -125 15.34 -125 15 C-124.44591461 15.00222061 -123.89182922 15.00444122 -123.32095337 15.00672913 C-117.51264089 15.02898903 -111.70434069 15.04399231 -105.89599609 15.05493164 C-103.73323066 15.0599358 -101.57046857 15.06674117 -99.40771484 15.07543945 C-96.2848223 15.08767762 -93.16197479 15.09326764 -90.0390625 15.09765625 C-88.60719101 15.10539818 -88.60719101 15.10539818 -87.14639282 15.11329651 C-81.03880946 15.11379783 -75.06426965 14.72564921 -69 14 C-69 14.66 -69 15.32 -69 16 C-68.34 15.67 -67.68 15.34 -67 15 C-64.9856173 14.92624011 -62.96874863 14.91653425 -60.953125 14.9375 C-59.71433594 14.94523437 -58.47554688 14.95296875 -57.19921875 14.9609375 C-54.61327662 14.98651556 -52.02733886 15.01254011 -49.44140625 15.0390625 C-34.15302644 16.07963236 -34.15302644 16.07963236 -20 12 C-19.34 11.01 -18.68 10.02 -18 9 C-15.65234375 8.12109375 -15.65234375 8.12109375 -12.9375 7.4375 C-10.28098684 6.79967846 -10.28098684 6.79967846 -8 6 C-7.67 5.34 -7.34 4.68 -7 4 C-6.34 4 -5.68 4 -5 4 C-4.67 3.01 -4.34 2.02 -4 1 C-2.0625 0.1875 -2.0625 0.1875 0 0 Z " fill="#C3B6E4" transform="translate(183,304)"/>
<path d="M0 0 C1.32 0.33 2.64 0.66 4 1 C2.17136967 2.32067746 0.34266917 3.64125651 -1.48632812 4.96142578 C-3.09817025 6.12615635 -4.70882118 7.29253691 -6.31835938 8.46044922 C-10.47021801 11.46966095 -14.63525992 14.45271051 -18.8515625 17.37109375 C-36.15086842 29.41924241 -50.20612924 44.4927535 -55.64453125 65.48828125 C-56.9290877 74.56487242 -56.84513627 82.12665357 -52 90 C-52 90.66 -52 91.32 -52 92 C-50.68 92.66 -49.36 93.32 -48 94 C-59.06296197 92.57621643 -67.77732418 86.16755371 -76 79 C-75.01 78.505 -75.01 78.505 -74 78 C-73.34 78.33 -72.68 78.66 -72 79 C-72 79.66 -72 80.32 -72 81 C-71.13761719 81.41185547 -71.13761719 81.41185547 -70.2578125 81.83203125 C-67.29160329 83.36645435 -64.57692421 85.21734322 -61.8046875 87.07421875 C-61.20914063 87.37972656 -60.61359375 87.68523437 -60 88 C-59.01 87.505 -59.01 87.505 -58 87 C-58.165 86.2575 -58.33 85.515 -58.5 84.75 C-60.26315789 71.52631579 -60.26315789 71.52631579 -58 67 C-57.7275833 64.44014782 -57.55435019 61.88070064 -57.37890625 59.3125 C-57 57 -57 57 -55 55 C-54.855625 54.360625 -54.71125 53.72125 -54.5625 53.0625 C-53.87941649 50.55786048 -52.85350701 49.78221828 -51 48 C-49.95355934 46.36209288 -48.9601817 44.68991979 -48 43 C-47.46632813 42.06994141 -47.46632813 42.06994141 -46.921875 41.12109375 C-45.94382915 39.41640116 -44.97147058 37.70844826 -44 36 C-43.34 36 -42.68 36 -42 36 C-41.773125 35.2575 -41.54625 34.515 -41.3125 33.75 C-39.73124115 30.43688621 -37.93160239 29.16380177 -35 27 C-33.10291252 25.15870921 -31.27671782 23.32484265 -29.5625 21.3125 C-27.49373756 19.57473955 -25.63840503 19.35654122 -23 19 C-22.9071875 18.13375 -22.9071875 18.13375 -22.8125 17.25 C-21.65799152 14.05289959 -19.78452021 12.8563468 -17 11 C-16.01 11 -15.02 11 -14 11 C-14 10.34 -14 9.68 -14 9 C-12.02 8.67 -10.04 8.34 -8 8 C-8 7.34 -8 6.68 -8 6 C-7.01 6 -6.02 6 -5 6 C-5 5.34 -5 4.68 -5 4 C-4.34 4 -3.68 4 -3 4 C-3 3.34 -3 2.68 -3 2 C-2.01 2 -1.02 2 0 2 C0 1.34 0 0.68 0 0 Z " fill="#2FC8CC" transform="translate(158,121)"/>
<path d="M0 0 C1.98 0 3.96 0 6 0 C3.07292425 2.27358907 0.04658168 4.21095508 -3.125 6.125 C-9.01261816 9.85669939 -14.02902845 14.12861385 -19 19 C-19.69996094 19.66386719 -20.39992188 20.32773438 -21.12109375 21.01171875 C-31.34378318 31.47353542 -38.28005752 47.41057746 -39 62 C-39.06445312 63.18722656 -39.12890625 64.37445313 -39.1953125 65.59765625 C-39.59888763 76.64688883 -37.90015031 86.56547694 -33.36328125 96.74609375 C-32 100 -32 100 -32 103 C-32.66 103 -33.32 103 -34 103 C-34 101.68 -34 100.36 -34 99 C-34.99 98.67 -35.98 98.34 -37 98 C-37.10957031 97.38253906 -37.21914063 96.76507813 -37.33203125 96.12890625 C-38.1354285 91.83758924 -39.01280926 87.77442949 -40.5625 83.6875 C-43.53907948 75.178692 -43.61743418 64.95279565 -43 56 C-42.67 55.34 -42.34 54.68 -42 54 C-41.34 54 -40.68 54 -40 54 C-39.94392578 52.89591797 -39.94392578 52.89591797 -39.88671875 51.76953125 C-39.24109242 42.18641104 -39.24109242 42.18641104 -36 38 C-35.67 37.34 -35.34 36.68 -35 36 C-34.34 36 -33.68 36 -33 36 C-32.896875 35.29875 -32.79375 34.5975 -32.6875 33.875 C-31.90640997 30.60862353 -30.57941257 27.9528148 -29 25 C-28.34 25 -27.68 25 -27 25 C-27 24.01 -27 23.02 -27 22 C-26.34 22 -25.68 22 -25 22 C-24.67 21.01 -24.34 20.02 -24 19 C-21.9375 18.3125 -21.9375 18.3125 -20 18 C-19.90589844 17.39671875 -19.81179687 16.7934375 -19.71484375 16.171875 C-18.83601348 13.50176772 -17.866928 12.80225504 -15.5625 11.25 C-14.94503906 10.82203125 -14.32757813 10.3940625 -13.69140625 9.953125 C-12 9 -12 9 -10 9 C-10 8.34 -10 7.68 -10 7 C-9.01 7 -8.02 7 -7 7 C-7 6.01 -7 5.02 -7 4 C-6.030625 3.71125 -5.06125 3.4225 -4.0625 3.125 C-0.89335797 2.35785318 -0.89335797 2.35785318 0 0 Z " fill="#02305D" transform="translate(99,78)"/>
<path d="M0 0 C0.33 0 0.66 0 1 0 C1.00423194 0.99483808 1.00846388 1.98967615 1.01282406 3.01466084 C1.11611372 27.24466522 1.22487433 51.47464037 1.33933926 75.70459461 C1.39456802 87.42211242 1.44803273 99.13963328 1.49731445 110.85717773 C1.54028335 121.07267018 1.58659282 131.28814115 1.63687855 141.5036003 C1.66337744 146.91031467 1.68822737 152.31702506 1.70907402 157.72376442 C1.72877008 162.81837997 1.7529511 167.91295503 1.78049088 173.00753403 C1.78979308 174.87185996 1.79749233 176.73619472 1.80341911 178.60053444 C1.57313853 196.03428029 1.57313853 196.03428029 5 213 C4.01 213.33 3.02 213.66 2 214 C-0.37122844 203.37156512 -0.27025511 192.91456675 -0.22705078 182.09472656 C-0.22648576 180.10283412 -0.22680501 178.11094127 -0.22793579 176.11904907 C-0.22850674 170.74386102 -0.21679442 165.36876326 -0.20278788 159.99359608 C-0.19023727 154.36420468 -0.18910661 148.73481094 -0.18673706 143.10540771 C-0.18053498 132.45974774 -0.16414144 121.81412912 -0.14403808 111.16848731 C-0.12163941 99.04268978 -0.11067569 86.91689022 -0.10064721 74.79107714 C-0.07977404 49.86069521 -0.0446229 24.93034993 0 0 Z " fill="#131A43" transform="translate(29,77)"/>
<path d="M0 0 C0.495 0.99 0.495 0.99 1 2 C0.34 2.33 -0.32 2.66 -1 3 C-1.41572266 3.97453125 -1.41572266 3.97453125 -1.83984375 4.96875 C-3 7 -3 7 -5.12890625 7.90625 C-6.75376005 8.30268303 -8.37876071 8.69851461 -10.00390625 9.09375 C-10.66261719 9.3928125 -11.32132813 9.691875 -12 10 C-12.70205978 11.95406809 -12.70205978 11.95406809 -13 14 C-13.66 14.66 -14.32 15.32 -15 16 C-16.32 16 -17.64 16 -19 16 C-19.2578125 16.61230469 -19.515625 17.22460938 -19.78125 17.85546875 C-21.14646673 20.25772511 -22.1224843 20.97271144 -24.5 22.3125 C-33.41389939 27.58346763 -42.65396065 33.65396065 -50 41 C-53.61068551 44.30979505 -56.10852434 45.54497901 -61 46 C-61 46.66 -61 47.32 -61 48 C-63.31 48.66 -65.62 49.32 -68 50 C-64.12846254 45.86636619 -59.97250095 42.69989237 -55.3125 39.5 C-53.78582443 38.43710783 -52.25980389 37.37327433 -50.734375 36.30859375 C-49.5597168 35.49044189 -49.5597168 35.49044189 -48.36132812 34.65576172 C-44.56774954 31.99570693 -40.81438752 29.28090146 -37.0625 26.5625 C-35.95322144 25.75981689 -35.95322144 25.75981689 -34.8215332 24.94091797 C-32.54716543 23.29466671 -30.273543 21.64739006 -28 20 C-8.37181966 5.78454876 -8.37181966 5.78454876 0 0 Z " fill="#043460" transform="translate(222,78)"/>
<path d="M0 0 C0.89817444 -0.00350464 1.79634888 -0.00700928 2.72174072 -0.01062012 C5.68509698 -0.01940863 8.64821366 -0.01359791 11.61157227 -0.00683594 C13.67513576 -0.00818353 15.73869894 -0.01012485 17.80226135 -0.01263428 C22.12552923 -0.01558174 26.4487144 -0.01130043 30.77197266 -0.00195312 C36.30793826 0.00943399 41.84370977 0.00288418 47.37966824 -0.00909805 C51.64078731 -0.01633291 55.90186056 -0.01402111 60.16298103 -0.00884247 C62.20388881 -0.0075101 64.24480077 -0.0091392 66.28570366 -0.01380157 C69.14110167 -0.01889267 71.99618766 -0.01111986 74.8515625 0 C75.6917543 -0.00404846 76.53194611 -0.00809692 77.39759827 -0.01226807 C81.98948574 0.02078281 85.66711011 0.50754985 89.99047852 2.25878906 C89.99047852 2.58878906 89.99047852 2.91878906 89.99047852 3.25878906 C84.71047852 3.91878906 79.43047852 4.57878906 73.99047852 5.25878906 C73.99047852 4.26878906 73.99047852 3.27878906 73.99047852 2.25878906 C63.66341749 2.21241052 53.33638132 2.17689178 43.00923729 2.15516472 C38.21372163 2.14473585 33.41827733 2.13059297 28.62280273 2.10791016 C23.99329554 2.08614987 19.36385691 2.07421369 14.73430252 2.06903458 C12.9697016 2.06534455 11.20510435 2.05813884 9.44053268 2.04732895 C6.96540014 2.0327717 4.49054946 2.03081289 2.01538086 2.03173828 C0.92564972 2.02095245 0.92564972 2.02095245 -0.18609619 2.00994873 C-4.50332482 2.02736849 -7.99503783 2.67479676 -12.00952148 4.25878906 C-12.66952148 3.59878906 -13.32952148 2.93878906 -14.00952148 2.25878906 C-9.33825768 -0.1139187 -5.11161918 -0.02457113 0 0 Z " fill="#39BBB0" transform="translate(198.009521484375,37.7412109375)"/>
<path d="M0 0 C0.66 0.33 1.32 0.66 2 1 C1.34 3.97 0.68 6.94 0 10 C-0.66 9.67 -1.32 9.34 -2 9 C-6.15916043 10.16211836 -8.16600611 11.91100362 -10.75 15.3125 C-11.34296875 16.07175781 -11.9359375 16.83101562 -12.546875 17.61328125 C-14.07943817 20.13047505 -14.46743233 22.13498319 -15 25 C-15.66 25.33 -16.32 25.66 -17 26 C-17.92148477 27.73675479 -18.76510567 29.51538741 -19.5625 31.3125 C-19.99691406 32.27800781 -20.43132812 33.24351562 -20.87890625 34.23828125 C-22.87502256 39.15554337 -23.21091985 43.52202437 -23.25 48.8125 C-23.270625 49.49892578 -23.29125 50.18535156 -23.3125 50.89257812 C-23.35620443 56.66702595 -22.21423263 61.45773291 -18.3125 65.9375 C-17.879375 66.288125 -17.44625 66.63875 -17 67 C-17.99 67.495 -17.99 67.495 -19 68 C-23.7096162 63.93998604 -25.69028463 59.9702823 -26.32421875 53.890625 C-26.96049419 34.14414585 -16.9612199 17.95769444 -4.0234375 3.84375 C-2.71500184 2.52911323 -1.36428721 1.25658033 0 0 Z " fill="#06477D" transform="translate(127,146)"/>
<path d="M0 0 C1.29230145 3.87690436 0.54078349 5.25809723 -1 9 C-3 12.375 -3 12.375 -5 15 C-5.66 15 -6.32 15 -7 15 C-12.25917602 29.77578023 -13.6199728 43.40628731 -14 59 C-18.80927011 50.25782628 -16.47760027 34.31130922 -14 25 C-10.54781557 16.10481406 -5.63257613 7.68078564 0 0 Z " fill="#31A8B4" transform="translate(75,101)"/>
<path d="M0 0 C0.66 0 1.32 0 2 0 C1.835 0.86625 1.67 1.7325 1.5 2.625 C0.18904106 12.23217674 -0.16944041 20.59965933 5 29 C5 29.66 5 30.32 5 31 C6.32 31.66 7.64 32.32 9 33 C-2.06296197 31.57621643 -10.77732418 25.16755371 -19 18 C-18.34 17.67 -17.68 17.34 -17 17 C-16.34 17.33 -15.68 17.66 -15 18 C-15 18.66 -15 19.32 -15 20 C-14.42507812 20.27457031 -13.85015625 20.54914063 -13.2578125 20.83203125 C-10.29160329 22.36645435 -7.57692421 24.21734322 -4.8046875 26.07421875 C-3.91136719 26.53248047 -3.91136719 26.53248047 -3 27 C-2.34 26.67 -1.68 26.34 -1 26 C-1.2475 24.88625 -1.2475 24.88625 -1.5 23.75 C-2.59203806 15.55971452 -2.43349952 7.90887344 0 0 Z " fill="#36B4C3" transform="translate(101,182)"/>
<path d="M0 0 C1.32 0.33 2.64 0.66 4 1 C3.49855469 1.34289063 2.99710937 1.68578125 2.48046875 2.0390625 C-3.5756489 6.22779124 -9.51399955 10.56390096 -15.4375 14.9375 C-16.6754834 15.85063965 -16.6754834 15.85063965 -17.93847656 16.78222656 C-21.49801407 19.40913416 -25.05486372 22.03937583 -28.6015625 24.68359375 C-29.57867187 25.40675781 -30.55578125 26.12992188 -31.5625 26.875 C-32.80193359 27.79925781 -32.80193359 27.79925781 -34.06640625 28.7421875 C-36 30 -36 30 -38 30 C-38 29.34 -38 28.68 -38 28 C-34.53846154 25 -34.53846154 25 -32 25 C-32 24.34 -32 23.68 -32 23 C-30.38263741 21.6072711 -28.7074998 20.28062485 -27 19 C-26.29875 18.4225 -25.5975 17.845 -24.875 17.25 C-23 16 -23 16 -20 16 C-20 15.34 -20 14.68 -20 14 C-18.02 13.34 -16.04 12.68 -14 12 C-14 11.34 -14 10.68 -14 10 C-13.0409375 9.566875 -13.0409375 9.566875 -12.0625 9.125 C-9.84793921 8.17176549 -9.84793921 8.17176549 -9 6 C-7.68 6 -6.36 6 -5 6 C-5 5.01 -5 4.02 -5 3 C-3.68 3 -2.36 3 -1 3 C-0.67 2.01 -0.34 1.02 0 0 Z " fill="#32BFC4" transform="translate(261,47)"/>
<path d="M0 0 C-3.24253796 2.6309156 -6.62736245 4.40296625 -10.3828125 6.21484375 C-10.99712128 6.51185684 -11.61143005 6.80886993 -12.24435425 7.11488342 C-13.54275166 7.7413667 -14.84218353 8.36571001 -16.14257812 8.98803711 C-18.10047316 9.92575309 -20.05433534 10.87148066 -22.0078125 11.81835938 C-28.90467396 15.1449607 -35.82877765 18.30001059 -43 21 C-41.04237305 16.33924384 -37.76907622 15.00694243 -33.375 12.9375 C-32.68792969 12.59912109 -32.00085938 12.26074219 -31.29296875 11.91210938 C-26.03637547 9.36271095 -20.56774472 6.75167445 -14.82958984 5.54272461 C-14.2258252 5.36362549 -13.62206055 5.18452637 -13 5 C-12.67 4.34 -12.34 3.68 -12 3 C-7.87828716 0.93914358 -4.63779454 -0.42161769 0 0 Z " fill="#01305D" transform="translate(157,53)"/>
<path d="M0 0 C0 0.66 0 1.32 0 2 C-0.99 2.33 -1.98 2.66 -3 3 C-3 3.99 -3 4.98 -3 6 C-5.06219541 7.10474754 -6.73495442 7.95984158 -9.0625 8.3125 C-11.94479587 9.33525015 -12.56907371 11.39831584 -14 14 C-14.99 14.495 -14.99 14.495 -16 15 C-16.72693904 16.97888961 -17.39816251 18.97954558 -18 21 C-17.34 21.33 -16.68 21.66 -16 22 C-17.62339805 23.70884005 -19.29319053 25.37446717 -21 27 C-21.66 27 -22.32 27 -23 27 C-23.33 28.98 -23.66 30.96 -24 33 C-25.84041525 28.15740737 -23.56327667 24.58451489 -21.578125 20.1015625 C-17.92997541 12.93168434 -9.10491586 0 0 0 Z " fill="#556088" transform="translate(54,42)"/>
<path d="M0 0 C11.81183834 1.06697267 21.80855296 8.85189395 30 17 C29.34 17.66 28.68 18.32 28 19 C27.67 18.34 27.34 17.68 27 17 C25.68 17.33 24.36 17.66 23 18 C22.34 15.69 21.68 13.38 21 11 C20.401875 11.20625 19.80375 11.4125 19.1875 11.625 C17 12 17 12 14 10 C14 9.34 14 8.68 14 8 C13.01 7.67 12.02 7.34 11 7 C11 6.34 11 5.68 11 5 C9.68 5.99 8.36 6.98 7 8 C6.5875 7.236875 6.175 6.47375 5.75 5.6875 C4.04124191 3.0633358 2.58982247 1.69678024 0 0 Z " fill="#7A6BC8" transform="translate(235,141)"/>
<path d="M0 0 C0 0.66 0 1.32 0 2 C-1.65 2.33 -3.3 2.66 -5 3 C-5 3.66 -5 4.32 -5 5 C-7.64 5 -10.28 5 -13 5 C-13.226875 5.61875 -13.45375 6.2375 -13.6875 6.875 C-15.39608617 9.64128237 -16.99992221 9.90241056 -20 11 C-20.474375 11.495 -20.94875 11.99 -21.4375 12.5 C-24.38122306 15.32597414 -28.02500572 16 -32 16 C-9.32663317 -2.89447236 -9.32663317 -2.89447236 0 0 Z " fill="#043263" transform="translate(282,42)"/>
<path d="M0 0 C-0.51272461 0.34667725 -1.02544922 0.69335449 -1.55371094 1.05053711 C-10.81796479 7.3245487 -20.02788546 13.59822188 -28.84765625 20.48828125 C-31 22 -31 22 -33 22 C-33 21.01 -33 20.02 -33 19 C-32.113125 18.608125 -31.22625 18.21625 -30.3125 17.8125 C-26.86164784 15.92429787 -24.72734198 13.79911414 -22 11 C-19.6875 9.6875 -19.6875 9.6875 -18 9 C-18 8.34 -18 7.68 -18 7 C-16.35 7 -14.7 7 -13 7 C-12.92523438 6.38769531 -12.85046875 5.77539062 -12.7734375 5.14453125 C-12 3 -12 3 -10.0390625 1.69921875 C-9.24242187 1.36535156 -8.44578125 1.03148438 -7.625 0.6875 C-6.83351562 0.34074219 -6.04203125 -0.00601563 -5.2265625 -0.36328125 C-3 -1 -3 -1 0 0 Z " fill="#2CC4C4" transform="translate(214,85)"/>
<path d="M0 0 C0.66 0.33 1.32 0.66 2 1 C1.75 4.375 1.75 4.375 1 8 C0.3503125 8.32226562 -0.299375 8.64453125 -0.96875 8.9765625 C-3.13906187 9.80464035 -3.13906187 9.80464035 -3.828125 11.8125 C-5.4188153 20.06052379 -6.61029747 30.09821687 -3 38 C-1.00375928 39.28029153 -1.00375928 39.28029153 1 40 C1 40.99 1 41.98 1 43 C-2.44381372 41.27809314 -5.29982232 37.90603924 -6.6328125 34.27734375 C-8.22927661 24.37586953 -7.71729165 14.92734764 -3 6 C-2.69191406 5.360625 -2.38382812 4.72125 -2.06640625 4.0625 C-1.40474943 2.69486484 -0.70759985 1.34443971 0 0 Z " fill="#142D7E" transform="translate(110,171)"/>
<path d="M0 0 C-5.01832118 4.02961468 -10.85328769 6.48061338 -16.625 9.25 C-17.78257812 9.8171875 -18.94015625 10.384375 -20.1328125 10.96875 C-21.23625 11.49984375 -22.3396875 12.0309375 -23.4765625 12.578125 C-24.48799316 13.06700195 -25.49942383 13.55587891 -26.54150391 14.05957031 C-27.35280762 14.36991211 -28.16411133 14.68025391 -29 15 C-29.66 14.67 -30.32 14.34 -31 14 C-30.5 12.1875 -30.5 12.1875 -29 10 C-25.37887012 8.08977094 -21.73269553 7.09677111 -17.6875 6.5625 C-14.88906486 6.29675296 -14.88906486 6.29675296 -13.6875 4.125 C-10.49550684 0.10545306 -4.81171579 -1.60390526 0 0 Z " fill="#8A72D6" transform="translate(238,281)"/>
<path d="M0 0 C0.43828125 0.35191406 0.8765625 0.70382813 1.328125 1.06640625 C8.55561012 6.69268024 16.38762604 11.7880726 25 15 C24.67 15.66 24.34 16.32 24 17 C21.69 16.67 19.38 16.34 17 16 C17 15.34 17 14.68 17 14 C16.01 14.33 15.02 14.66 14 15 C11.8125 14.0625 11.8125 14.0625 10 13 C10 12.34 10 11.68 10 11 C9.401875 10.731875 8.80375 10.46375 8.1875 10.1875 C6.01273336 9.00691239 4.73183488 7.73183488 3 6 C2.01 5.67 1.02 5.34 0 5 C0 3.35 0 1.7 0 0 Z " fill="#032C5C" transform="translate(81,199)"/>
<path d="M0 0 C-0.33 1.32 -0.66 2.64 -1 4 C-2.32 4 -3.64 4 -5 4 C-5.66 5.32 -6.32 6.64 -7 8 C-7.66 8 -8.32 8 -9 8 C-9.020625 8.5775 -9.04125 9.155 -9.0625 9.75 C-10.60679013 13.4562963 -13.4367181 14.31212963 -17 16 C-17.66 15.67 -18.32 15.34 -19 15 C-19 15.66 -19 16.32 -19 17 C-19.99 17 -20.98 17 -22 17 C-22.33 17.66 -22.66 18.32 -23 19 C-23.66 18.34 -24.32 17.68 -25 17 C-22.48020165 15.10278804 -19.95896967 13.20748998 -17.4375 11.3125 C-16.73302734 10.78205078 -16.02855469 10.25160156 -15.30273438 9.70507812 C-13.20642808 8.1304333 -11.10465145 6.56346955 -9 5 C-8.33371582 4.50161621 -7.66743164 4.00323242 -6.98095703 3.48974609 C-2.23317901 0 -2.23317901 0 0 0 Z " fill="#04295B" transform="translate(154,128)"/>
<path d="M0 0 C-3.66692695 3.31206305 -7.3198038 5.10041666 -11.80078125 7.00390625 C-15.43976022 8.65211164 -18.57695737 10.91759621 -21.74609375 13.328125 C-25.1368844 15.86574897 -27.64592689 17.60417517 -32 18 C-26.03777506 11.44155257 -9.28764921 -3.09588307 0 0 Z " fill="#30ACB6" transform="translate(116,75)"/>
<path d="M0 0 C1.52981204 2.94194623 2.85137022 5.95152108 4.14453125 9.00390625 C5.09483384 11.22127896 6.07694844 13.42307997 7.0625 15.625 C8.44550414 18.72483687 9.77434283 21.83371897 11 25 C11.66 25 12.32 25 13 25 C13.391875 26.051875 13.78375 27.10375 14.1875 28.1875 C15.76402557 31.91658932 17.96895425 34.29663487 21 37 C20.67 37.66 20.34 38.32 20 39 C12.1838874 30.69005894 6.77073637 23.42007691 2.6875 12.8125 C2.42042236 12.12269043 2.15334473 11.43288086 1.87817383 10.72216797 C0.52141531 7.03475118 -0.32873616 3.93718891 0 0 Z " fill="#31ADB9" transform="translate(61,160)"/>
<path d="M0 0 C2.64 0.33 5.28 0.66 8 1 C4.4944222 4.64813364 0.8750037 7.76940717 -3.1875 10.8125 C-4.23292969 11.60269531 -5.27835938 12.39289063 -6.35546875 13.20703125 C-9 15 -9 15 -11 15 C-11 14.34 -11 13.68 -11 13 C-10.34 13 -9.68 13 -9 13 C-9 11.35 -9 9.7 -9 8 C-7.68 8.33 -6.36 8.66 -5 9 C-5 8.01 -5 7.02 -5 6 C-3.625 4.5 -3.625 4.5 -2 3 C-1.34 2.01 -0.68 1.02 0 0 Z " fill="#24CCC3" transform="translate(173,106)"/>
<path d="M0 0 C2 2 2 2 2 4 C-1.78166242 5.90583329 -5.5717755 7.79327337 -9.37084961 9.6640625 C-10.66240204 10.30326159 -11.95149517 10.94745477 -13.23803711 11.59667969 C-15.0860675 12.52817246 -16.94215086 13.44144338 -18.80078125 14.3515625 C-19.91622314 14.90666504 -21.03166504 15.46176758 -22.1809082 16.03369141 C-23.57635864 16.51201416 -23.57635864 16.51201416 -25 17 C-25.99 16.34 -26.98 15.68 -28 15 C-27.44570312 14.81824219 -26.89140625 14.63648438 -26.3203125 14.44921875 C-25.23363281 14.07216797 -25.23363281 14.07216797 -24.125 13.6875 C-23.40570313 13.44386719 -22.68640625 13.20023437 -21.9453125 12.94921875 C-19.66005095 12.03664453 -19.66005095 12.03664453 -18 9 C-15.65234375 8.12109375 -15.65234375 8.12109375 -12.9375 7.4375 C-10.28098684 6.79967846 -10.28098684 6.79967846 -8 6 C-7.67 5.34 -7.34 4.68 -7 4 C-6.34 4 -5.68 4 -5 4 C-4.67 3.01 -4.34 2.02 -4 1 C-2.0625 0.1875 -2.0625 0.1875 0 0 Z " fill="#8A71D3" transform="translate(183,304)"/>
<path d="M0 0 C0 0.33 0 0.66 0 1 C-5.28 1.66 -10.56 2.32 -16 3 C-16 2.01 -16 1.02 -16 0 C-25.24 0 -34.48 0 -44 0 C-44 -0.33 -44 -0.66 -44 -1 C-39.54177678 -1.16969953 -35.08340695 -1.33520374 -30.625 -1.5 C-28.74748047 -1.57154297 -28.74748047 -1.57154297 -26.83203125 -1.64453125 C-5.7415196 -2.41748194 -5.7415196 -2.41748194 0 0 Z " fill="#25D2C1" transform="translate(288,40)"/>
<path d="M0 0 C-0.1875 1.875 -0.1875 1.875 -1 4 C-2.66666667 4.66666667 -4.33333333 5.33333333 -6 6 C-6.13664062 6.64839844 -6.27328125 7.29679687 -6.4140625 7.96484375 C-6.70410156 8.97224609 -6.70410156 8.97224609 -7 10 C-8.7421875 10.94140625 -8.7421875 10.94140625 -10.875 11.5625 C-14.13163688 12.52987738 -15.63012482 13.6112664 -18 16 C-20.30988315 16.74386068 -22.64315944 17.42190703 -25 18 C-20.8415408 13.68691175 -16.19204182 10.28729041 -11.375 6.75 C-10.50359375 6.1003125 -9.6321875 5.450625 -8.734375 4.78125 C-7.90164062 4.16765625 -7.06890625 3.5540625 -6.2109375 2.921875 C-5.07084229 2.08027832 -5.07084229 2.08027832 -3.90771484 1.22167969 C-2 0 -2 0 0 0 Z " fill="#033260" transform="translate(250,59)"/>
<path d="M0 0 C1.258125 -0.020625 2.51625 -0.04125 3.8125 -0.0625 C4.52019531 -0.07410156 5.22789062 -0.08570313 5.95703125 -0.09765625 C8 0 8 0 11 1 C11.1953125 3.05078125 11.390625 5.1015625 11.5859375 7.15234375 C11.72257812 7.76207031 11.85921875 8.37179688 12 9 C12.66 9.33 13.32 9.66 14 10 C13.34 11.32 12.68 12.64 12 14 C10.56041153 12.41856529 9.12341355 10.83477221 7.6875 9.25 C6.88699219 8.36828125 6.08648437 7.4865625 5.26171875 6.578125 C3.39083089 4.44550672 1.65915714 2.29812057 0 0 Z " fill="#161765" transform="translate(260,153)"/>
<path d="M0 0 C2.00720923 0.28674418 4.0085944 0.61866701 6 1 C5.67 1.66 5.34 2.32 5 3 C7.22189824 5.22189824 9.08482708 5.92598892 12 7 C11.67 7.99 11.34 8.98 11 10 C9.40494792 9.0234375 7.80989583 8.046875 6.21484375 7.0703125 C-0.35564604 3.89515518 -6.75321103 3.61071146 -13.9375 3.375 C-15.3925293 3.31699219 -15.3925293 3.31699219 -16.87695312 3.2578125 C-19.25112076 3.16424924 -21.62529492 3.07850792 -24 3 C-24 2.67 -24 2.34 -24 2 C-23.30849854 1.97494385 -22.61699707 1.9498877 -21.90454102 1.92407227 C-18.79032134 1.80847839 -15.67643211 1.68558758 -12.5625 1.5625 C-10.92958008 1.50352539 -10.92958008 1.50352539 -9.26367188 1.44335938 C-8.22919922 1.40146484 -7.19472656 1.35957031 -6.12890625 1.31640625 C-5.17056885 1.27974854 -4.21223145 1.24309082 -3.22485352 1.20532227 C-1.02861075 1.24165576 -1.02861075 1.24165576 0 0 Z " fill="#181A6A" transform="translate(238,137)"/>
<path d="M0 0 C10.56 0 21.12 0 32 0 C32 1.32 32 2.64 32 4 C27.92857143 7 27.92857143 7 25 7 C25 5.02 25 3.04 25 1 C16.75 1 8.5 1 0 1 C0 0.67 0 0.34 0 0 Z " fill="#1DD3C8" transform="translate(240,40)"/>
<path d="M0 0 C4.12596703 -0.02492452 8.25190422 -0.04296521 12.37792969 -0.05493164 C13.77832809 -0.05992616 15.17872137 -0.06672408 16.57910156 -0.07543945 C30.898355 -0.16225376 30.898355 -0.16225376 38 1 C38 1.33 38 1.66 38 2 C33.71378751 2.19362767 29.42728051 2.3721176 25.13989258 2.53710938 C23.68399511 2.59520971 22.22825137 2.65731493 20.77270508 2.72363281 C18.67036983 2.81870244 16.56788763 2.89895595 14.46484375 2.9765625 C13.202771 3.02893066 11.94069824 3.08129883 10.64038086 3.13525391 C6.68464204 2.98828326 3.73701364 2.23374084 0 1 C0 0.67 0 0.34 0 0 Z " fill="#A285D4" transform="translate(58,319)"/>
<path d="M0 0 C1.125 3.75 1.125 3.75 0 6 C-0.35225591 12.7343041 -0.02420892 19.342642 1 26 C-0.8125 25.8125 -0.8125 25.8125 -3 25 C-4.8125 22.5625 -4.8125 22.5625 -6 20 C-5.67 19.34 -5.34 18.68 -5 18 C-4.67 18.33 -4.34 18.66 -4 19 C-2.30571767 15.61143534 -2.59737919 11.78489889 -2.37890625 8.04296875 C-2.00506308 5.04066119 -1.25094803 2.73993071 0 0 Z " fill="#1AD8C9" transform="translate(100,184)"/>
<path d="M0 0 C0.99 0.66 1.98 1.32 3 2 C3 2.66 3 3.32 3 4 C8.3107178 7.10302911 14.21513159 6.44557894 20.125 5.5 C20.74375 5.335 21.3625 5.17 22 5 C22 6.32 22 7.64 22 9 C3.46808511 8.95744681 3.46808511 8.95744681 -4 2 C-2.68 1.34 -1.36 0.68 0 0 Z " fill="#796FAF" transform="translate(50,311)"/>
<path d="M0 0 C0.99 0.33 1.98 0.66 3 1 C1.58884686 4.12270026 -0.110624 6.49653681 -2.375 9.0625 C-2.96023438 9.73410156 -3.54546875 10.40570313 -4.1484375 11.09765625 C-5.9760704 12.97541411 -7.86364865 14.48949607 -10 16 C-10.66 15.67 -11.32 15.34 -12 15 C-11.566875 14.51789063 -11.13375 14.03578125 -10.6875 13.5390625 C-10.130625 12.90742188 -9.57375 12.27578125 -9 11.625 C-8.443125 10.99851562 -7.88625 10.37203125 -7.3125 9.7265625 C-5.79827513 8.09610167 -5.79827513 8.09610167 -6 6 C-5.01 6 -4.02 6 -3 6 C-3 5.34 -3 4.68 -3 4 C-2.01 4 -1.02 4 0 4 C0 2.68 0 1.36 0 0 Z " fill="#5D6385" transform="translate(307,299)"/>
<path d="M0 0 C0.33 0 0.66 0 1 0 C1.33448703 5.46328815 0.67265287 10.51385885 -0.375 15.875 C-0.56412964 16.87478882 -0.56412964 16.87478882 -0.75708008 17.89477539 C-1.75246182 22.75246182 -1.75246182 22.75246182 -4 25 C-4.625 23.125 -4.625 23.125 -5 21 C-4.34 20.34 -3.68 19.68 -3 19 C-3 17.68 -3 16.36 -3 15 C-2.84998555 13.08195815 -2.68240316 11.16523314 -2.5 9.25 C-2.36078125 7.77273437 -2.36078125 7.77273437 -2.21875 6.265625 C-2.1465625 5.51796875 -2.074375 4.7703125 -2 4 C-1.34 4 -0.68 4 0 4 C0 2.68 0 1.36 0 0 Z " fill="#8472D3" transform="translate(285,212)"/>
<path d="M0 0 C0.57492188 0.71929687 1.14984375 1.43859375 1.7421875 2.1796875 C3.18232989 3.97861969 4.62479876 5.77569356 6.0703125 7.5703125 C6.74835938 8.41335937 7.42640625 9.25640625 8.125 10.125 C8.80820313 10.97320312 9.49140625 11.82140625 10.1953125 12.6953125 C12 15 12 15 14 18 C13.01 18 12.02 18 11 18 C11 17.34 11 16.68 11 16 C10.01 16.33 9.02 16.66 8 17 C0 6.40540541 0 6.40540541 0 0 Z " fill="#03325F" transform="translate(67,181)"/>
<path d="M0 0 C2.57178319 4.59246998 3.63137133 9.64068178 5 14.6875 C5.86326431 17.88556274 5.86326431 17.88556274 7.125 20.25 C8 22 8 22 8 25 C7.34 25 6.68 25 6 25 C6 23.68 6 22.36 6 21 C5.01 20.67 4.02 20.34 3 20 C2.86722656 19.28972656 2.73445313 18.57945312 2.59765625 17.84765625 C2.42105469 16.92855469 2.24445312 16.00945312 2.0625 15.0625 C1.88847656 14.14597656 1.71445312 13.22945312 1.53515625 12.28515625 C1.22285012 10.04710156 1.22285012 10.04710156 0 9 C-0.07179964 7.48071962 -0.08392007 5.95832518 -0.0625 4.4375 C-0.05347656 3.61121094 -0.04445312 2.78492188 -0.03515625 1.93359375 C-0.02355469 1.29550781 -0.01195312 0.65742188 0 0 Z " fill="#043E65" transform="translate(59,156)"/>
<path d="M0 0 C-2.73816657 2.73816657 -6.02782641 4.02844915 -9.5 5.625 C-10.18964844 5.94984375 -10.87929687 6.2746875 -11.58984375 6.609375 C-16.74274554 9 -16.74274554 9 -19 9 C-19 8.34 -19 7.68 -19 7 C-17.35 6.67 -15.7 6.34 -14 6 C-13.67 4.35 -13.34 2.7 -13 1 C-8.62426048 0.40667939 -4.42471556 -0.13827236 0 0 Z " fill="#043258" transform="translate(189,38)"/>
<path d="M0 0 C2 3 2 3 1.75 4.8671875 C-0.220332 10.14193046 -2.40840169 12.73486342 -7 16 C-7.66 15.67 -8.32 15.34 -9 15 C-8.51789063 14.25234375 -8.03578125 13.5046875 -7.5390625 12.734375 C-6.90742188 11.74953125 -6.27578125 10.7646875 -5.625 9.75 C-4.99851562 8.77546875 -4.37203125 7.8009375 -3.7265625 6.796875 C-2.34865148 4.56478385 -1.11687358 2.36912578 0 0 Z " fill="#201C70" transform="translate(279,242)"/>
<path d="M0 0 C2 1 2 1 2.88671875 3.3984375 C3.15097656 4.38070312 3.41523438 5.36296875 3.6875 6.375 C3.95949219 7.35210937 4.23148438 8.32921875 4.51171875 9.3359375 C5 12 5 12 4 15 C3.34 15 2.68 15 2 15 C1.896875 15.61875 1.79375 16.2375 1.6875 16.875 C1 19 1 19 -2 21 C-2.33 20.01 -2.66 19.02 -3 18 C-2.01 17.34 -1.02 16.68 0 16 C1.74706142 10.75881575 1.32791716 5.31166864 0 0 Z " fill="#1B1E70" transform="translate(216,192)"/>
<path d="M0 0 C0.66 0.66 1.32 1.32 2 2 C1.67 2.99 1.34 3.98 1 5 C0.34 4.34 -0.32 3.68 -1 3 C-1.66 3.66 -2.32 4.32 -3 5 C-3.825 5.804375 -4.65 6.60875 -5.5 7.4375 C-8.08866921 9.93367462 -8.08866921 9.93367462 -10 13 C-10.66 13 -11.32 13 -12 13 C-12.33 13.66 -12.66 14.32 -13 15 C-12.39827192 11.1471441 -10.5889231 8.82875869 -8.1875 5.8125 C-7.50042969 4.93207031 -6.81335938 4.05164063 -6.10546875 3.14453125 C-3.98268005 0.98235872 -3.01126348 0.11994551 0 0 Z " fill="#1B2F80" transform="translate(125,154)"/>
<path d="M0 0 C1.32 0.33 2.64 0.66 4 1 C1.67783003 5.51533049 -0.98560245 8.01055501 -5 11 C-5.66 11 -6.32 11 -7 11 C-6.42434163 7.66118147 -5.46131758 6.27198545 -3 4 C-1.98199424 2.68036291 -0.97751635 1.34990354 0 0 Z " fill="#131A51" transform="translate(44,49)"/>
<path d="M0 0 C3.48749314 2.78999451 6.50157221 5.25235831 9 9 C8.67 9.66 8.34 10.32 8 11 C6.02 10.01 4.04 9.02 2 8 C2 7.34 2 6.68 2 6 C1.01 6 0.02 6 -1 6 C-0.67 4.02 -0.34 2.04 0 0 Z " fill="#886ED7" transform="translate(265,159)"/>
<path d="M0 0 C0 0.66 0 1.32 0 2 C-0.99 2 -1.98 2 -3 2 C-3.33 2.99 -3.66 3.98 -4 5 C-7.4375 6.25 -7.4375 6.25 -11 7 C-11.66 6.67 -12.32 6.34 -13 6 C-12.67 5.01 -12.34 4.02 -12 3 C-11.01 3 -10.02 3 -9 3 C-9 2.34 -9 1.68 -9 1 C-5.92677456 0.08941469 -3.19902639 -0.08886184 0 0 Z " fill="#12174E" transform="translate(63,41)"/>
<path d="M0 0 C0.66 0.33 1.32 0.66 2 1 C1.360625 1.268125 0.72125 1.53625 0.0625 1.8125 C-2.33131686 2.88667752 -2.33131686 2.88667752 -3 6 C-3.7425 6.144375 -4.485 6.28875 -5.25 6.4375 C-7.52027739 6.90187492 -9.75759479 7.41863569 -12 8 C-12 8.66 -12 9.32 -12 10 C-13.32 9.34 -14.64 8.68 -16 8 C-13.37964982 6.63610475 -10.75443001 5.28367827 -8.125 3.9375 C-7.37863281 3.54755859 -6.63226563 3.15761719 -5.86328125 2.75585938 C-4.79013672 2.20961914 -4.79013672 2.20961914 -3.6953125 1.65234375 C-3.03547363 1.31195068 -2.37563477 0.97155762 -1.69580078 0.62084961 C-1.13618652 0.41596924 -0.57657227 0.21108887 0 0 Z " fill="#251D74" transform="translate(242,279)"/>
<path d="M0 0 C0 0.66 0 1.32 0 2 C-0.99 2.33 -1.98 2.66 -3 3 C-3 3.99 -3 4.98 -3 6 C-4.99021261 7.06618532 -6.71076064 7.94401819 -8.9375 8.375 C-11.84596296 9.25635241 -13.72148536 11.03794572 -16 13 C-13.60178766 7.53018565 -6.33833448 0 0 0 Z " fill="#8286A1" transform="translate(54,42)"/>
<path d="M0 0 C-2.45264589 1.84104236 -4.91300959 3.67147793 -7.375 5.5 C-8.42300781 6.28697266 -8.42300781 6.28697266 -9.4921875 7.08984375 C-10.1625 7.58613281 -10.8328125 8.08242187 -11.5234375 8.59375 C-12.450354 9.28500977 -12.450354 9.28500977 -13.39599609 9.99023438 C-15 11 -15 11 -17 11 C-17 9 -17 9 -15.8125 7.4375 C-13.5879284 5.67318459 -11.78211944 5.37596209 -9 5 C-8.938125 4.38125 -8.87625 3.7625 -8.8125 3.125 C-8 1 -8 1 -5.625 -0.3125 C-3 -1 -3 -1 0 0 Z " fill="#35C0C6" transform="translate(144,135)"/>
<path d="M0 0 C4.81632537 4.81632537 4.95571494 6.29861117 5.0625 12.8125 C5.041875 13.864375 5.02125 14.91625 5 16 C4.01 16 3.02 16 2 16 C1.34 10.72 0.68 5.44 0 0 Z " fill="#151B4A" transform="translate(310,64)"/>
<path d="M0 0 C0 0.99 0 1.98 0 3 C-2.03876949 3.81974263 -4.08116075 4.6304807 -6.125 5.4375 C-7.26195313 5.88996094 -8.39890625 6.34242187 -9.5703125 6.80859375 C-12.74206741 7.91039927 -15.67942748 8.56095774 -19 9 C-16.26183343 6.26183343 -12.97217359 4.97155085 -9.5 3.375 C-8.81035156 3.05015625 -8.12070313 2.7253125 -7.41015625 2.390625 C-2.25725446 0 -2.25725446 0 0 0 Z " fill="#2EA7B5" transform="translate(134,65)"/>
<path d="M0 0 C6.03491509 1.88591096 11.50401226 5.75601839 15 11 C11.03939073 10.72995846 9.46285393 10.51428214 6.75 7.5 C6.1725 6.675 5.595 5.85 5 5 C4.34 4.67 3.68 4.34 3 4 C3 3.34 3 2.68 3 2 C2.01 1.67 1.02 1.34 0 1 C0 0.67 0 0.34 0 0 Z " fill="#5A5F81" transform="translate(289,41)"/>
<path d="M0 0 C1.65 0.33 3.3 0.66 5 1 C5 1.99 5 2.98 5 4 C0.545 5.485 0.545 5.485 -4 7 C-4 6.34 -4 5.68 -4 5 C-4.66 4.34 -5.32 3.68 -6 3 C-3.50907189 1.75453595 -2.58919267 2.2232422 0 3 C0 2.01 0 1.02 0 0 Z " fill="#484D77" transform="translate(289,313)"/>
<path d="M0 0 C0.66 0.33 1.32 0.66 2 1 C1.34 3.97 0.68 6.94 0 10 C-2.97 9.505 -2.97 9.505 -6 9 C-5.52797514 4.75177626 -3.03344482 2.80010291 0 0 Z " fill="#0F447A" transform="translate(127,146)"/>
<path d="M0 0 C0 0.66 0 1.32 0 2 C-2.65856371 3.35260259 -5.32202746 4.68680856 -8 6 C-8.96486328 6.47953125 -8.96486328 6.47953125 -9.94921875 6.96875 C-13.46487315 8.61599805 -15.32022731 9.17592736 -19 8 C-16.21128823 6.66042079 -13.41856938 5.32941565 -10.625 4 C-9.8309375 3.6184375 -9.036875 3.236875 -8.21875 2.84375 C-7.45820313 2.4828125 -6.69765625 2.121875 -5.9140625 1.75 C-5.2123291 1.41484375 -4.5105957 1.0796875 -3.78759766 0.734375 C-2 0 -2 0 0 0 Z " fill="#2CA5B1" transform="translate(153,56)"/>
<path d="M0 0 C0.99 0.66 1.98 1.32 3 2 C1.68 3.32 0.36 4.64 -1 6 C-1.99 5.67 -2.98 5.34 -4 5 C-4.33 5.99 -4.66 6.98 -5 8 C-6.65 8 -8.3 8 -10 8 C-6.97727468 4.74475735 -3.74281699 2.38179263 0 0 Z " fill="#967FDF" transform="translate(164,250)"/>
<path d="M0 0 C1.29230145 3.87690436 0.54078349 5.25809723 -1 9 C-3 12.375 -3 12.375 -5 15 C-5.66 15 -6.32 15 -7 15 C-5.51298598 9.19839226 -4.27495594 4.42236821 0 0 Z " fill="#29B8B9" transform="translate(75,101)"/>
<path d="M0 0 C0.66 0.33 1.32 0.66 2 1 C0.73461631 1.84158536 -0.53753779 2.67299748 -1.8125 3.5 C-2.87404297 4.19609375 -2.87404297 4.19609375 -3.95703125 4.90625 C-6 6 -6 6 -9 6 C-9.33 6.99 -9.66 7.98 -10 9 C-12.31 9 -14.62 9 -17 9 C-13.70101352 6.30230662 -10.2321566 4.54362136 -6.375 2.75 C-5.22773438 2.20859375 -4.08046875 1.6671875 -2.8984375 1.109375 C-1.94195312 0.74328125 -0.98546875 0.3771875 0 0 Z " fill="#2DA7B2" transform="translate(170,47)"/>
<path d="M0 0 C0.99 0.99 1.98 1.98 3 3 C1.52307692 9.64615385 1.52307692 9.64615385 -1.125 11.4375 C-1.74375 11.623125 -2.3625 11.80875 -3 12 C-3.20375803 8.3323555 -2.80451285 6.18443445 -1 3 C-0.67 2.01 -0.34 1.02 0 0 Z " fill="#2A2788" transform="translate(236,178)"/>
<path d="M0 0 C-0.54269531 0.31453125 -1.08539063 0.6290625 -1.64453125 0.953125 C-7.06718839 4.15541303 -7.06718839 4.15541303 -11 9 C-11.66 8.67 -12.32 8.34 -13 8 C-12.34 6.68 -11.68 5.36 -11 4 C-10.34 4 -9.68 4 -9 4 C-9 3.01 -9 2.02 -9 1 C-5.47051709 -0.66670026 -3.71727674 -1.13583456 0 0 Z " fill="#06245C" transform="translate(232,76)"/>
<path d="M0 0 C0 0.66 0 1.32 0 2 C-2.08164018 2.36398622 -4.16540562 2.71583287 -6.25 3.0625 C-7.99023438 3.35833984 -7.99023438 3.35833984 -9.765625 3.66015625 C-12.62522624 3.9606216 -14.33325929 3.9439206 -17 3 C-11.10261508 0.70657253 -6.33393082 -0.34548714 0 0 Z " fill="#4C5175" transform="translate(71,38)"/>
<path d="M0 0 C1.3921875 0.3403125 1.3921875 0.3403125 2.8125 0.6875 C-0.1780167 4.02307632 -3.11934627 5.83833921 -7.1875 7.6875 C-6.83051497 5.04581079 -6.435192 3.07859264 -5 0.8125 C-3.1875 -0.3125 -3.1875 -0.3125 0 0 Z " fill="#1F1A6B" transform="translate(95.1875,297.3125)"/>
<path d="M0 0 C-2.75170751 2.9555377 -5.41970299 5.11563315 -9 7 C-9.66 7 -10.32 7 -11 7 C-11 6.01 -11 5.02 -11 4 C-9.35546875 2.578125 -9.35546875 2.578125 -7.1875 1.25 C-6.47980469 0.80140625 -5.77210937 0.3528125 -5.04296875 -0.109375 C-3 -1 -3 -1 0 0 Z " fill="#221D6E" transform="translate(82,309)"/>
<path d="M0 0 C-0.33 0.99 -0.66 1.98 -1 3 C-2.33333333 3.33333333 -3.66666667 3.66666667 -5 4 C-5.33 4.99 -5.66 5.98 -6 7 C-8.64 7 -11.28 7 -14 7 C-11.79459886 4.79459886 -9.78605258 3.7599273 -7 2.375 C-6.113125 1.92898438 -5.22625 1.48296875 -4.3125 1.0234375 C-2 0 -2 0 0 0 Z " fill="#281F72" transform="translate(213,294)"/>
<path d="M0 0 C0.33 0.66 0.66 1.32 1 2 C0.01 2.495 0.01 2.495 -1 3 C-1.226875 3.61875 -1.45375 4.2375 -1.6875 4.875 C-3.69848918 8.13088725 -6.4905643 8.69139686 -10 10 C-10.969375 10.391875 -11.93875 10.78375 -12.9375 11.1875 C-13.618125 11.455625 -14.29875 11.72375 -15 12 C-10.58990583 7.14889642 -5.41995647 3.651893 0 0 Z " fill="#043F66" transform="translate(222,78)"/>
<path d="M0 0 C0.66 0.33 1.32 0.66 2 1 C0.875 3.875 0.875 3.875 -1 7 C-4.1875 8.375 -4.1875 8.375 -7 9 C-7.66 8.34 -8.32 7.68 -9 7 C-6.03 4.69 -3.06 2.38 0 0 Z " fill="#8C75D3" transform="translate(212,214)"/>
<path d="M0 0 C0.33 0.99 0.66 1.98 1 3 C0.10375977 4.62573242 0.10375977 4.62573242 -1.30859375 6.35546875 C-2.05786133 7.28842773 -2.05786133 7.28842773 -2.82226562 8.24023438 C-3.35529297 8.88283203 -3.88832031 9.52542969 -4.4375 10.1875 C-4.96666016 10.84169922 -5.49582031 11.49589844 -6.04101562 12.16992188 C-7.35152928 13.78740269 -8.67460942 15.39468693 -10 17 C-10.33 16.34 -10.66 15.68 -11 15 C-9.72954304 13.24972675 -8.45861894 11.49979256 -7.1875 9.75 C-6.12595703 8.28820312 -6.12595703 8.28820312 -5.04296875 6.796875 C-3.37845179 4.51810991 -1.69998177 2.25234178 0 0 Z " fill="#085685" transform="translate(120,153)"/>
<path d="M0 0 C0.66 0.33 1.32 0.66 2 1 C0.50260417 2.23697917 -0.99479167 3.47395833 -2.4921875 4.7109375 C-3.71051161 5.75250992 -4.86660097 6.86660097 -6 8 C-6.99 7.67 -7.98 7.34 -9 7 C-8 4 -8 4 -6.22265625 2.796875 C-5.50980469 2.45140625 -4.79695312 2.1059375 -4.0625 1.75 C-3.35222656 1.39421875 -2.64195312 1.0384375 -1.91015625 0.671875 C-1.27980469 0.45015625 -0.64945313 0.2284375 0 0 Z " fill="#032D5B" transform="translate(178,111)"/>
<path d="M0 0 C1.32 0 2.64 0 4 0 C5.125 2.3125 5.125 2.3125 6 5 C5.01 6.485 5.01 6.485 4 8 C2.35 6.35 0.7 4.7 -1 3 C-0.67 2.01 -0.34 1.02 0 0 Z " fill="#19C2B7" transform="translate(80,192)"/>
<path d="M0 0 C-0.66 1.65 -1.32 3.3 -2 5 C-4.31 4.67 -6.62 4.34 -9 4 C-9.33 3.01 -9.66 2.02 -10 1 C-6.52674819 -0.1577506 -3.63932552 -0.06866652 0 0 Z " fill="#0B255B" transform="translate(289,41)"/>
<path d="M0 0 C-2.64 2.97 -5.28 5.94 -8 9 C-9.25541557 5.23375329 -8.37061958 3.62811066 -7 0 C-2.25 -1.125 -2.25 -1.125 0 0 Z " fill="#8470D2" transform="translate(272,256)"/>
<path d="M0 0 C0 4.00333149 -0.93272472 6.80957758 -3.625 9.8125 C-4.07875 10.204375 -4.5325 10.59625 -5 11 C-5.99 10.67 -6.98 10.34 -8 10 C-8.33 9.34 -8.66 8.68 -9 8 C-8.43410156 7.50628906 -7.86820313 7.01257813 -7.28515625 6.50390625 C-6.55167969 5.86324219 -5.81820312 5.22257813 -5.0625 4.5625 C-4.33160156 3.92441406 -3.60070312 3.28632813 -2.84765625 2.62890625 C-1.87860647 1.77458541 -0.91348825 0.91348825 0 0 Z " fill="#9179DE" transform="translate(226,202)"/>
<path d="M0 0 C1.90608098 3.21182149 2.22266247 5.53882603 2.125 9.25 C2.10695313 10.14203125 2.08890625 11.0340625 2.0703125 11.953125 C2.03550781 12.96632812 2.03550781 12.96632812 2 14 C-0.5637264 11.4362736 -1.18633466 9.52588314 -2 6 C-1.125 2.625 -1.125 2.625 0 0 Z " fill="#7D6ACC" transform="translate(284,194)"/>
<path d="M0 0 C0.66 0.33 1.32 0.66 2 1 C1.401875 1.33 0.80375 1.66 0.1875 2 C-2.89928188 4.82220057 -3.76988723 8.07668579 -5 12 C-5.66 12 -6.32 12 -7 12 C-6.6257368 6.63556087 -5.0040457 4.50353999 -1 1 C-0.67 0.67 -0.34 0.34 0 0 Z " fill="#4D5375" transform="translate(40,53)"/>
<path d="M0 0 C5.73842251 -0.20413361 10.60539047 -0.27141454 16 2 C16 2.33 16 2.66 16 3 C12.37 3 8.74 3 5 3 C5 2.34 5 1.68 5 1 C3.35 1 1.7 1 0 1 C0 0.67 0 0.34 0 0 Z " fill="#70C9CC" transform="translate(272,38)"/>
<path d="M0 0 C0.66 0.66 1.32 1.32 2 2 C-3.445 4.475 -3.445 4.475 -9 7 C-9.33 5.68 -9.66 4.36 -10 3 C-9.278125 2.87625 -8.55625 2.7525 -7.8125 2.625 C-5.04278106 2.0095069 -2.6029646 1.11555626 0 0 Z " fill="#8970D4" transform="translate(203,296)"/>
<path d="M0 0 C0.99 0.33 1.98 0.66 3 1 C-0.17320782 4.53586014 -2.16743695 6.58578031 -7 7 C-7 6.01 -7 5.02 -7 4 C-4.35261084 2.5393715 -3.10551666 2 0 2 C0 1.34 0 0.68 0 0 Z " fill="#26C5C1" transform="translate(241,61)"/>
<path d="M0 0 C1.77049689 -0.05410687 3.54146849 -0.09284119 5.3125 -0.125 C6.29863281 -0.14820313 7.28476563 -0.17140625 8.30078125 -0.1953125 C11 0 11 0 14 2 C13.67 2.33 13.34 2.66 13 3 C11.07421875 2.94921875 11.07421875 2.94921875 8.6875 2.6875 C7.51767578 2.56955078 7.51767578 2.56955078 6.32421875 2.44921875 C3.91792729 1.98413721 2.12866168 1.19341444 0 0 Z " fill="#AC9FD1" transform="translate(58,319)"/>
<path d="M0 0 C0.33 0.66 0.66 1.32 1 2 C0.34 1.67 -0.32 1.34 -1 1 C-0.67 0.67 -0.34 0.34 0 0 Z M-1 2 C-1 2.66 -1 3.32 -1 4 C-1.969375 4.268125 -2.93875 4.53625 -3.9375 4.8125 C-4.948125 5.204375 -5.95875 5.59625 -7 6 C-7.33 6.99 -7.66 7.98 -8 9 C-8.99 9.33 -9.98 9.66 -11 10 C-11.66 9.34 -12.32 8.68 -13 8 C-11.37829621 6.99466333 -9.75252763 5.99588093 -8.125 5 C-6.76761719 4.1646875 -6.76761719 4.1646875 -5.3828125 3.3125 C-3 2 -3 2 -1 2 Z " fill="#251E73" transform="translate(257,270)"/>
<path d="M0 0 C0 0.66 0 1.32 0 2 C0.66 2.33 1.32 2.66 2 3 C0.3125 3.8125 0.3125 3.8125 -2 4 C-4.75 1.5625 -4.75 1.5625 -7 -1 C-3.51418144 -2.2020064 -3.32007656 -2.21338437 0 0 Z " fill="#495377" transform="translate(53,313)"/>
<path d="M0 0 C0.66 0.33 1.32 0.66 2 1 C-0.62559946 4.69528813 -2.5369351 6.85562438 -7 8 C-7.99 7.67 -8.98 7.34 -10 7 C-6.7 4.69 -3.4 2.38 0 0 Z " fill="#8D76D7" transform="translate(92,302)"/>
<path d="M0 0 C0.33 0.99 0.66 1.98 1 3 C-0.2578125 5.0078125 -0.2578125 5.0078125 -2.125 7.125 C-2.72570312 7.82882812 -3.32640625 8.53265625 -3.9453125 9.2578125 C-6.31139318 11.264033 -7.95461799 11.65225742 -11 12 C-10.29875 11.319375 -9.5975 10.63875 -8.875 9.9375 C-5.72065663 6.79219487 -2.86065696 3.4111614 0 0 Z " fill="#231D72" transform="translate(269,258)"/>
<path d="M0 0 C0.66 0.33 1.32 0.66 2 1 C1.01 2.485 1.01 2.485 0 4 C-0.66 4 -1.32 4 -2 4 C-2.061875 4.556875 -2.12375 5.11375 -2.1875 5.6875 C-3.33373872 8.94987173 -5.49390197 10.68667874 -8 13 C-7.6875 10.625 -7.6875 10.625 -7 8 C-6.01 7.34 -5.02 6.68 -4 6 C-3.67 5.01 -3.34 4.02 -3 3 C-2.34 3 -1.68 3 -1 3 C-0.67 2.01 -0.34 1.02 0 0 Z " fill="#1CDACD" transform="translate(116,153)"/>
<path d="M0 0 C0.33 1.32 0.66 2.64 1 4 C-0.6875 6.3125 -0.6875 6.3125 -3 8 C-4.32 7.67 -5.64 7.34 -7 7 C-4.69 4.69 -2.38 2.38 0 0 Z " fill="#31B5BB" transform="translate(83,93)"/>
<path d="M0 0 C0.86625 0.3403125 0.86625 0.3403125 1.75 0.6875 C-2.875 5.5625 -2.875 5.5625 -6.25 6.6875 C-6.25 2.6875 -6.25 2.6875 -4.5 0.875 C-2.25 -0.3125 -2.25 -0.3125 0 0 Z " fill="#846FD3" transform="translate(260.25,265.3125)"/>
<path d="M0 0 C0.66 0.33 1.32 0.66 2 1 C1.360625 1.598125 0.72125 2.19625 0.0625 2.8125 C-2.20310389 4.90810337 -2.20310389 4.90810337 -3 8 C-4.65 7.67 -6.3 7.34 -8 7 C-5.42215154 4.35247996 -3.08351902 2.05567935 0 0 Z " fill="#8F79D7" transform="translate(180,238)"/>
<path d="M0 0 C-0.33 1.32 -0.66 2.64 -1 4 C-2.32 4 -3.64 4 -5 4 C-5.33 4.99 -5.66 5.98 -6 7 C-7.32 6.67 -8.64 6.34 -10 6 C-8.71283353 4.99421411 -7.42011342 3.99553202 -6.125 3 C-5.40570313 2.443125 -4.68640625 1.88625 -3.9453125 1.3125 C-2 0 -2 0 0 0 Z " fill="#034269" transform="translate(154,128)"/>
<path d="M0 0 C0.66 0.33 1.32 0.66 2 1 C1.75 4.375 1.75 4.375 1 8 C-1.046875 9.2265625 -1.046875 9.2265625 -3 10 C-2.69201674 8.51988629 -2.378482 7.04092675 -2.0625 5.5625 C-1.88847656 4.73878906 -1.71445313 3.91507813 -1.53515625 3.06640625 C-1 1 -1 1 0 0 Z " fill="#1C2984" transform="translate(110,171)"/>
<path d="M0 0 C3.24208567 0.35049575 4.61527704 0.56221181 6.8125 3.0625 C7.204375 3.701875 7.59625 4.34125 8 5 C7.01 5.495 7.01 5.495 6 6 C5.67 5.34 5.34 4.68 5 4 C3.68 4.33 2.36 4.66 1 5 C0.67 3.35 0.34 1.7 0 0 Z " fill="#8A71D6" transform="translate(257,154)"/>
<path d="M0 0 C0.33 0.66 0.66 1.32 1 2 C-2.82180842 6.4008703 -5.47371099 7.80805531 -11 9 C-7.67149253 5.40521193 -4.01028669 2.77635232 0 0 Z " fill="#023D66" transform="translate(236,68)"/>
<path d="M0 0 C0.66 0.66 1.32 1.32 2 2 C-2.455 4.97 -2.455 4.97 -7 8 C-6.67 6.35 -6.34 4.7 -6 3 C-4.68 3 -3.36 3 -2 3 C-1.67 2.34 -1.34 1.68 -1 1 C-0.67 0.67 -0.34 0.34 0 0 Z " fill="#1E1B6B" transform="translate(193,226)"/>
<path d="M0 0 C1.32 0 2.64 0 4 0 C2.50902342 3.7952131 0.24299151 5.61042731 -3 8 C-3 7.01 -3 6.02 -3 5 C-2.34 5 -1.68 5 -1 5 C-0.67 3.35 -0.34 1.7 0 0 Z " fill="#322A87" transform="translate(221,202)"/>
<path d="M0 0 C3.5875213 1.33250791 6.8364623 2.830717 10 5 C10 5.66 10 6.32 10 7 C6.00118212 6.38479725 3.19641774 4.39731331 0 2 C0 1.34 0 0.68 0 0 Z " fill="#1EC1BC" transform="translate(86,200)"/>
<path d="M0 0 C3.96 0.33 7.92 0.66 12 1 C11.01 2.485 11.01 2.485 10 4 C6.44219804 3.39009109 3.3171411 2.4216319 0 1 C0 0.67 0 0.34 0 0 Z " fill="#1E267E" transform="translate(138,172)"/>
<path d="M0 0 C-7.11389522 5.55580866 -7.11389522 5.55580866 -12 6 C-4.43243243 -2.21621622 -4.43243243 -2.21621622 0 0 Z " fill="#2CB5B8" transform="translate(96,87)"/>
<path d="M0 0 C2.31 1.65 4.62 3.3 7 5 C6.67 5.66 6.34 6.32 6 7 C4.02 6.34 2.04 5.68 0 5 C0 3.35 0 1.7 0 0 Z " fill="#053562" transform="translate(81,199)"/>
<path d="M0 0 C0 0.66 0 1.32 0 2 C-0.99 2 -1.98 2 -3 2 C-3 2.66 -3 3.32 -3 4 C-3.66 4 -4.32 4 -5 4 C-5 4.66 -5 5.32 -5 6 C-5.99 6 -6.98 6 -8 6 C-8.33 6.66 -8.66 7.32 -9 8 C-8.66410006 4.86493389 -7.97334828 3.974751 -5.625 1.75 C-3 0 -3 0 0 0 Z " fill="#1DD9CA" transform="translate(158,121)"/>
<path d="M0 0 C3.8665284 3.222107 4.88059018 6.14922412 6 11 C1.9957657 7.50912907 0.37328935 5.35048061 0 0 Z " fill="#686D8C" transform="translate(308,57)"/>
<path d="M0 0 C-2.48952921 2.66735273 -4.63408134 4.55746343 -8 6 C-8.33 5.01 -8.66 4.02 -9 3 C-6.38997624 -0.48003168 -4.1689578 -0.27793052 0 0 Z " fill="#211D6D" transform="translate(106,292)"/>
<path d="M0 0 C7.50769231 0.61538462 7.50769231 0.61538462 10 2.5625 C10.33 3.036875 10.66 3.51125 11 4 C9.68 4 8.36 4 7 4 C7 3.34 7 2.68 7 2 C6.401875 2.226875 5.80375 2.45375 5.1875 2.6875 C4.465625 2.790625 3.74375 2.89375 3 3 C1.25 1.5625 1.25 1.5625 0 0 Z " fill="#8269D0" transform="translate(249,150)"/>
<path d="M0 0 C0 0.66 0 1.32 0 2 C-0.66 2 -1.32 2 -2 2 C-2 2.66 -2 3.32 -2 4 C-4.31 4.33 -6.62 4.66 -9 5 C-4.22727273 0 -4.22727273 0 0 0 Z " fill="#22C7C2" transform="translate(175,47)"/>
<path d="M0 0 C0.66 0.33 1.32 0.66 2 1 C2 1.99 2 2.98 2 4 C0.35 4.66 -1.3 5.32 -3 6 C-3 4.35 -3 2.7 -3 1 C-2.01 1.33 -1.02 1.66 0 2 C0 1.34 0 0.68 0 0 Z " fill="#1E1D6C" transform="translate(132,269)"/>
<path d="M0 0 C1.4540625 0.0309375 1.4540625 0.0309375 2.9375 0.0625 C0.32235683 2.18288635 -2.25887616 4.19341744 -5.0625 6.0625 C-3.98897059 0.08140756 -3.98897059 0.08140756 0 0 Z " fill="#221D6E" transform="translate(164.0625,247.9375)"/>
<path d="M0 0 C2.96404505 2.80804268 5.44499019 5.18315774 7 9 C2.79373966 7.49776416 1.26099979 4.71449966 -1 1 C-0.67 0.67 -0.34 0.34 0 0 Z " fill="#7664C5" transform="translate(267,161)"/>
<path d="M0 0 C0.598125 0.309375 1.19625 0.61875 1.8125 0.9375 C4.08956772 2.10209704 4.08956772 2.10209704 7 3 C7 3.66 7 4.32 7 5 C6.01 5.33 5.02 5.66 4 6 C0.8125 4.0625 0.8125 4.0625 -2 2 C-1.34 1.34 -0.68 0.68 0 0 Z " fill="#1A1669" transform="translate(253,146)"/>
<path d="M0 0 C1.32 0.33 2.64 0.66 4 1 C-0.455 3.97 -0.455 3.97 -5 7 C-4.67 5.68 -4.34 4.36 -4 3 C-3.01 3 -2.02 3 -1 3 C-0.67 2.01 -0.34 1.02 0 0 Z " fill="#33BFC4" transform="translate(219,77)"/>
<path d="M0 0 C2.64 0.66 5.28 1.32 8 2 C7.01 2.495 7.01 2.495 6 3 C6.33 3.99 6.66 4.98 7 6 C3.63279613 4.60667426 2.0140476 3.0210714 0 0 Z " fill="#6A6E90" transform="translate(39,306)"/>
<path d="M0 0 C0.99 0 1.98 0 3 0 C2.46930939 3.82097239 1.50298434 6.06171403 -1 9 C-0.67 6.03 -0.34 3.06 0 0 Z " fill="#686E8B" transform="translate(311,291)"/>
<path d="M0 0 C0.928125 0.0825 1.85625 0.165 2.8125 0.25 C-1.6875 4.25 -1.6875 4.25 -6.1875 4.25 C-4.36434338 1.00883268 -3.82500054 0.30000004 0 0 Z " fill="#8973D5" transform="translate(251.1875,271.75)"/>
<path d="M0 0 C0.66 0.33 1.32 0.66 2 1 C-0.475 5.455 -0.475 5.455 -3 10 C-4 6 -4 6 -2.0625 2.75 C-1.381875 1.8425 -0.70125 0.935 0 0 Z " fill="#023F65" transform="translate(70,105)"/>
<path d="M0 0 C-3.3 1.32 -6.6 2.64 -10 4 C-10.66 3.34 -11.32 2.68 -12 2 C-10.75579353 1.4654744 -9.50429064 0.94791389 -8.25 0.4375 C-7.55390625 0.14746094 -6.8578125 -0.14257812 -6.140625 -0.44140625 C-4 -1 -4 -1 0 0 Z " fill="#085273" transform="translate(282,42)"/>
<path d="M0 0 C1.65 0 3.3 0 5 0 C5.33 0.99 5.66 1.98 6 3 C4.02 3.33 2.04 3.66 0 4 C0 2.68 0 1.36 0 0 Z " fill="#33C4C1" transform="translate(272,39)"/>
<path d="M0 0 C0.66 0.66 1.32 1.32 2 2 C1.34 2 0.68 2 0 2 C-0.33 2.99 -0.66 3.98 -1 5 C-2.65 5 -4.3 5 -6 5 C-2.25 1.125 -2.25 1.125 0 0 Z " fill="#8C79D6" transform="translate(160,253)"/>
<path d="M0 0 C0.99 0.99 1.98 1.98 3 3 C0.69 4.32 -1.62 5.64 -4 7 C-2.79618552 4.50638429 -1.54571278 2.31856917 0 0 Z " fill="#1C1B6A" transform="translate(211,211)"/>
<path d="M0 0 C0.33 0.66 0.66 1.32 1 2 C-0.65 4.31 -2.3 6.62 -4 9 C-4.66 8.34 -5.32 7.68 -6 7 C-4.625 5 -4.625 5 -3 3 C-2.34 3 -1.68 3 -1 3 C-0.67 2.01 -0.34 1.02 0 0 Z " fill="#342E90" transform="translate(231,193)"/>
<path d="M0 0 C1.65 1.65 3.3 3.3 5 5 C4.34 5.66 3.68 6.32 3 7 C1.35 5.02 -0.3 3.04 -2 1 C-1.34 0.67 -0.68 0.34 0 0 Z " fill="#231B70" transform="translate(265,155)"/>
<path d="M0 0 C-0.33 1.32 -0.66 2.64 -1 4 C-1.99 4 -2.98 4 -4 4 C-4.33 4.66 -4.66 5.32 -5 6 C-5.66 5.34 -6.32 4.68 -7 4 C-2.25 0 -2.25 0 0 0 Z " fill="#043D6A" transform="translate(136,141)"/>
<path d="M0 0 C2.31 0.33 4.62 0.66 7 1 C5.68 2.32 4.36 3.64 3 5 C2.01 4.67 1.02 4.34 0 4 C0 2.68 0 1.36 0 0 Z " fill="#081A54" transform="translate(172,39)"/>
<path d="M0 0 C1.25541557 3.76624671 0.37061958 5.37188934 -1 9 C-1.66 8.67 -2.32 8.34 -3 8 C-1.125 2.25 -1.125 2.25 0 0 Z " fill="#17204D" transform="translate(314,283)"/>
<path d="M0 0 C1.32 0.66 2.64 1.32 4 2 C2.68 3.32 1.36 4.64 0 6 C-1 3 -1 3 0 0 Z " fill="#1D1A68" transform="translate(125,273)"/>
<path d="M0 0 C2.12508244 3.18762365 2.5020163 5.26512223 3 9 C0.52121318 6.8445332 -0.57563804 5.28880515 -1 2 C-0.67 1.34 -0.34 0.68 0 0 Z " fill="#7E68C9" transform="translate(281,184)"/>
<path d="M0 0 C0 3 0 3 -1.25 4.75 C-1.8275 5.1625 -2.405 5.575 -3 6 C-4.32 5.67 -5.64 5.34 -7 5 C-4.69 3.35 -2.38 1.7 0 0 Z " fill="#024065" transform="translate(169,116)"/>
<path d="" fill="#FFFFFF" transform="translate(0,0)"/>
<path d="" fill="#FFFFFF" transform="translate(0,0)"/>
<path d="" fill="#FFFFFF" transform="translate(0,0)"/>
<path d="" fill="#FFFFFF" transform="translate(0,0)"/>
<path d="" fill="#FFFFFF" transform="translate(0,0)"/>
<path d="" fill="#FFFFFF" transform="translate(0,0)"/>
<path d="" fill="#FFFFFF" transform="translate(0,0)"/>
<path d="" fill="#FFFFFF" transform="translate(0,0)"/>
<path d="" fill="#FFFFFF" transform="translate(0,0)"/>
<path d="" fill="#FFFFFF" transform="translate(0,0)"/>
<path d="" fill="#FFFFFF" transform="translate(0,0)"/>
<path d="" fill="#FFFFFF" transform="translate(0,0)"/>
<path d="" fill="#FFFFFF" transform="translate(0,0)"/>
<path d="" fill="#FFFFFF" transform="translate(0,0)"/>
<path d="" fill="#FFFFFF" transform="translate(0,0)"/>
<path d="" fill="#FFFFFF" transform="translate(0,0)"/>
<path d="" fill="#FFFFFF" transform="translate(0,0)"/>
<path d="" fill="#FFFFFF" transform="translate(0,0)"/>
<path d="" fill="#FFFFFF" transform="translate(0,0)"/>
<path d="" fill="#FFFFFF" transform="translate(0,0)"/>
<path d="" fill="#FFFFFF" transform="translate(0,0)"/>
<path d="" fill="#FFFFFF" transform="translate(0,0)"/>
<path d="" fill="#FFFFFF" transform="translate(0,0)"/>
<path d="" fill="#FFFFFF" transform="translate(0,0)"/>
<path d="" fill="#FFFFFF" transform="translate(0,0)"/>
<path d="" fill="#FFFFFF" transform="translate(0,0)"/>
<path d="" fill="#FFFFFF" transform="translate(0,0)"/>
<path d="" fill="#FFFFFF" transform="translate(0,0)"/>
<path d="" fill="#FFFFFF" transform="translate(0,0)"/>
<path d="" fill="#FFFFFF" transform="translate(0,0)"/>
</svg>
